<svg width="127" height="42" viewBox="0 0 127 42" fill="none" xmlns="http://www.w3.org/2000/svg">
<g clip-path="url(#clip0_357_4179)">
<path d="M19.663 18.6328H9.27079C4.15004 18.6328 0 14.5031 0 9.40733V9.2255C0 4.12977 4.15004 0 9.27079 0H14.9808V13.9758C14.9808 16.5486 17.0775 18.6328 19.6607 18.6328H19.663Z" fill="url(#paint0_linear_357_4179)"/>
<path d="M36.0756 9.31641C36.0756 13.1916 33.698 16.5145 30.3154 17.9192C29.2076 18.3805 27.9903 18.6328 26.7135 18.6328H25.7199C22.8969 18.6328 20.2543 17.8555 18 16.5032C18.0525 16.5054 18.1073 16.5077 18.1599 16.5077C19.8569 16.5077 21.2433 15.1826 21.3324 13.5144C21.3347 13.4575 21.3369 13.4007 21.3369 13.3462V0H26.7135C31.8845 0 36.0756 4.17068 36.0756 9.31641Z" fill="url(#paint1_linear_357_4179)"/>
<path d="M16.4131 23.3672H26.8053C31.9261 23.3672 36.0761 27.497 36.0761 32.5927V32.7745C36.0761 37.8702 31.9261 42 26.8053 42H21.0953V28.0243C21.0953 25.4514 18.9986 23.3672 16.4154 23.3672H16.4131Z" fill="url(#paint2_linear_357_4179)"/>
<path d="M0 32.6856C0 28.8103 2.37765 25.4874 5.76027 24.0828C6.86801 23.6214 8.08539 23.3691 9.36215 23.3691H10.3557C13.1787 23.3691 15.8213 24.1465 18.0756 25.4988C18.0231 25.4965 17.9683 25.4943 17.9158 25.4943C16.2187 25.4943 14.8324 26.8193 14.7433 28.4876C14.741 28.5444 14.7387 28.6012 14.7387 28.6558V42.002H9.36215C4.19116 42.002 0 37.8313 0 32.6856Z" fill="url(#paint3_linear_357_4179)"/>
<path d="M52.4618 10.8225L59.4326 26.6734H57.2856L55.1272 21.5981H48.6315L46.4731 26.6734H44.3262L51.2741 10.8225C51.5002 10.3066 52.2334 10.3066 52.4618 10.8225ZM51.868 13.8227L49.2208 19.9139H54.5128L51.8657 13.8227H51.868Z" fill="#231F20"/>
<path d="M60.5654 26.6725V11.1307C60.5654 10.5421 61.2917 10.2625 61.6914 10.6966L72.7301 23.1518V10.4375H74.6144V26.127C74.6144 26.7134 73.8926 26.9952 73.4929 26.5656L62.452 14.2423V26.6747H60.5677L60.5654 26.6725Z" fill="#231F20"/>
<path d="M78.0088 26.6725V10.4375H79.9845V16.4901H88.8213V10.4375H90.8312V26.6725H88.8213V18.3652H79.9845V26.6725H78.0088Z" fill="#231F20"/>
<path d="M111.239 18.4336C111.239 19.6178 111.019 20.7315 110.579 21.7792C110.14 22.827 109.498 23.7566 108.658 24.5703C107.817 25.384 106.849 26.0113 105.755 26.4522C104.661 26.8932 103.526 27.1136 102.352 27.1136C101.178 27.1136 100.047 26.8932 98.9598 26.4522C97.8726 26.0113 96.9088 25.384 96.0683 24.5703C95.2186 23.7498 94.5745 22.8157 94.1314 21.7679C93.6883 20.7201 93.4668 19.6087 93.4668 18.4336C93.4668 17.2585 93.6883 16.1335 94.1314 15.0834C94.5745 14.0334 95.2209 13.0969 96.0683 12.2742C96.9019 11.4673 97.8635 10.8468 98.9553 10.4104C100.047 9.97405 101.18 9.75586 102.354 9.75586C103.528 9.75586 104.674 9.97405 105.768 10.4104C106.863 10.8468 107.826 11.4696 108.66 12.2742C109.501 13.0879 110.142 14.0197 110.581 15.0721C111.019 16.1244 111.241 17.2449 111.241 18.4336H111.239ZM102.352 25.259C103.261 25.259 104.126 25.0885 104.949 24.7453C105.771 24.4021 106.511 23.9044 107.171 23.2475C107.822 22.5997 108.32 21.8656 108.66 21.0428C109 20.2223 109.172 19.3518 109.172 18.4313C109.172 17.5108 109 16.6221 108.655 15.7857C108.311 14.9493 107.817 14.2106 107.173 13.5697C106.522 12.9219 105.784 12.4287 104.962 12.0901C104.14 11.7514 103.27 11.581 102.354 11.581C101.438 11.581 100.554 11.7514 99.7273 12.0901C98.9005 12.4287 98.1696 12.9219 97.5346 13.5697C96.8837 14.2243 96.3858 14.9675 96.0454 15.7971C95.7051 16.6267 95.5338 17.504 95.5338 18.4313C95.5338 19.3587 95.7028 20.2178 96.0386 21.0315C96.3766 21.8452 96.8745 22.5838 97.5323 23.2475C98.1993 23.9112 98.9393 24.4112 99.7547 24.7499C100.57 25.0885 101.436 25.259 102.352 25.259Z" fill="#231F20"/>
<path d="M119.326 10.8225L126.297 26.6734H124.15L121.992 21.5981H115.496L113.337 26.6734H111.19L118.138 10.8225C118.364 10.3066 119.098 10.3066 119.326 10.8225ZM118.732 13.8227L116.085 19.9139H121.377L118.73 13.8227H118.732Z" fill="#231F20"/>
<path d="M46.3558 35.9478V34.0704H44.2773V35.9478H43.873V31.9453H44.2773V33.709H46.3558V31.9453H46.7555V35.9478H46.3558Z" fill="#010101"/>
<path d="M50.236 35.56C49.93 35.8668 49.5645 36.0191 49.1374 36.0191C48.7103 36.0191 48.3563 35.8668 48.0502 35.5645C47.7419 35.2622 47.5889 34.9031 47.5889 34.4872C47.5889 34.0713 47.7396 33.6894 48.0388 33.3803C48.3403 33.0689 48.708 32.9121 49.1374 32.9121C49.5668 32.9121 49.9254 33.0644 50.2337 33.3712C50.5421 33.6781 50.6951 34.0417 50.6951 34.4645C50.6951 34.8872 50.5421 35.2531 50.236 35.5577V35.56ZM49.9734 33.6121C49.7427 33.3758 49.4663 33.2553 49.1443 33.2553C48.8222 33.2553 48.5322 33.378 48.3038 33.6258C48.0799 33.8644 47.9703 34.1508 47.9703 34.4826C47.9703 34.8145 48.0845 35.0872 48.3129 35.3213C48.5436 35.5577 48.8199 35.6782 49.1466 35.6782C49.4732 35.6782 49.7632 35.5577 49.9894 35.3145C50.2086 35.0781 50.3183 34.7895 50.3183 34.4508C50.3183 34.1122 50.2041 33.8463 49.9757 33.6121H49.9734Z" fill="#010101"/>
<path d="M53.6856 35.9482V35.4891H53.6742C53.592 35.6641 53.4595 35.7959 53.2791 35.8891C53.1146 35.9754 52.9296 36.0186 52.7218 36.0186C52.2764 36.0186 51.9361 35.8709 51.7008 35.5754C51.6026 35.4527 51.5341 35.3027 51.4907 35.1231C51.4564 34.9799 51.4404 34.8117 51.4404 34.6208V32.9889H51.8196V34.614C51.8196 34.9458 51.8858 35.1981 52.016 35.3731C52.1667 35.5732 52.402 35.6732 52.7218 35.6732C52.973 35.6732 53.1831 35.5936 53.3521 35.4322C53.4732 35.3186 53.5554 35.1822 53.6034 35.0254C53.6422 34.9004 53.6628 34.7413 53.6628 34.5481V32.9844H54.0419V35.9414H53.6833L53.6856 35.9482Z" fill="#010101"/>
<path d="M55.6421 36.0185C55.3772 36.0185 55.1579 35.9321 54.9866 35.7594C54.8153 35.5866 54.7285 35.3684 54.7285 35.1048V35.0707H55.1077C55.1145 35.4752 55.2927 35.6775 55.6398 35.6775C56.0098 35.6775 56.1948 35.5002 56.1948 35.148C56.1948 34.9752 56.124 34.8388 55.9802 34.7366C55.9231 34.6957 55.85 34.657 55.7563 34.6184L55.5051 34.5206C55.4 34.4797 55.3132 34.4434 55.2516 34.4115C55.1625 34.3661 55.0894 34.3161 55.0323 34.2638C54.8884 34.1343 54.8176 33.957 54.8176 33.7365C54.8176 33.4956 54.8975 33.2979 55.0597 33.1456C55.2196 32.9933 55.4206 32.916 55.665 32.916C55.8934 32.916 56.0852 32.9933 56.2405 33.1478C56.3958 33.3024 56.4735 33.4933 56.4735 33.7206H56.0944C56.0738 33.4115 55.9253 33.2569 55.649 33.2569C55.3475 33.2569 55.199 33.4047 55.199 33.7001C55.199 33.8479 55.2698 33.9661 55.4137 34.0547C55.4685 34.0888 55.5416 34.1229 55.6376 34.157L55.6992 34.1797C55.7129 34.1843 55.7335 34.1934 55.7632 34.2024L55.8911 34.2502C55.9939 34.2911 56.0784 34.3297 56.1469 34.3661C56.236 34.4138 56.309 34.4684 56.3661 34.5275C56.51 34.6729 56.5808 34.8707 56.5808 35.1161C56.5808 35.7184 56.2702 36.0185 55.6467 36.0185H55.6421Z" fill="#010101"/>
<path d="M60.1964 34.607H57.4898C57.5036 34.8979 57.6269 35.148 57.8576 35.3616C58.0883 35.573 58.3486 35.6775 58.6433 35.6775C58.8762 35.6775 59.0909 35.6162 59.2851 35.4934C59.4861 35.3639 59.6277 35.1934 59.7076 34.9798H60.1119C60.0023 35.2889 59.8127 35.5412 59.5432 35.7321C59.2737 35.923 58.9767 36.0207 58.6501 36.0207C58.223 36.0207 57.8553 35.8684 57.5515 35.5639C57.25 35.2639 57.1016 34.9002 57.1016 34.4729C57.1016 34.0456 57.2523 33.6842 57.5515 33.3774C57.8553 33.0706 58.2207 32.916 58.6433 32.916C59.0658 32.916 59.4427 33.0728 59.7464 33.3888C60.0479 33.7001 60.201 34.0706 60.201 34.5002L60.1964 34.6093V34.607ZM59.8127 34.2661C59.7624 33.9729 59.6322 33.732 59.4175 33.5433C59.2029 33.3524 58.947 33.2547 58.6501 33.2547C58.3532 33.2547 58.102 33.3501 57.8827 33.5433C57.668 33.7342 57.5378 33.9752 57.4898 34.2661H59.8104H59.8127Z" fill="#010101"/>
<path d="M65.1872 35.56C64.8811 35.8668 64.5157 36.0191 64.0886 36.0191C63.6615 36.0191 63.3075 35.8668 63.0014 35.5645C62.6931 35.2622 62.54 34.9031 62.54 34.4872C62.54 34.0713 62.6908 33.6894 62.99 33.3803C63.2915 33.0689 63.6592 32.9121 64.0886 32.9121C64.518 32.9121 64.8766 33.0644 65.1826 33.3712C65.491 33.6781 65.644 34.0417 65.644 34.4645C65.644 34.8872 65.491 35.2531 65.1849 35.5577L65.1872 35.56ZM64.9245 33.6121C64.6939 33.3758 64.4175 33.2553 64.0954 33.2553C63.7734 33.2553 63.4833 33.378 63.2549 33.6258C63.0311 33.8644 62.9215 34.1508 62.9215 34.4826C62.9215 34.8145 63.0357 35.0872 63.2641 35.3213C63.4948 35.5577 63.7711 35.6782 64.0977 35.6782C64.4243 35.6782 64.7144 35.5577 64.9405 35.3145C65.1598 35.0781 65.2694 34.7895 65.2694 34.4508C65.2694 34.1122 65.1552 33.8463 64.9268 33.6121H64.9245Z" fill="#010101"/>
<path d="M67.0007 33.3319V35.9479H66.6215V33.3319H66.1602V32.991H66.6215L66.6261 32.8796C66.6261 32.8364 66.6307 32.8 66.6352 32.7682C66.6421 32.6864 66.6535 32.6114 66.6718 32.5455C66.738 32.3 66.875 32.125 67.0829 32.0159C67.2542 31.925 67.4803 31.8795 67.7612 31.875V32.225C67.2542 32.225 67.0007 32.4728 67.0007 32.966V32.9864H67.7612V33.3274H67.0007V33.3319Z" fill="#010101"/>
<path d="M72.2149 35.9478V34.3227C72.2149 34.1636 72.1943 34.0182 72.1509 33.8841C72.103 33.7272 72.0299 33.6022 71.9317 33.509C71.7512 33.3408 71.5365 33.2545 71.2876 33.2545C71.0386 33.2545 70.8216 33.3386 70.6412 33.509C70.543 33.5999 70.4722 33.7227 70.4242 33.8727C70.3831 34.0022 70.3625 34.1432 70.3625 34.2932V35.9478H69.9834V31.9453H70.3625V33.3681H70.374C70.5704 33.0658 70.8742 32.9135 71.2899 32.9135C71.7055 32.9135 72.0299 33.0454 72.2628 33.309C72.4867 33.5613 72.5963 33.9 72.5963 34.3204V35.9455H72.2172L72.2149 35.9478Z" fill="#010101"/>
<path d="M76.4526 34.607H73.746C73.7597 34.8979 73.8831 35.148 74.1138 35.3616C74.3444 35.573 74.6048 35.6775 74.8995 35.6775C75.1324 35.6775 75.3471 35.6162 75.5413 35.4934C75.7423 35.3639 75.8839 35.1934 75.9638 34.9798H76.3658C76.2562 35.2889 76.0666 35.5412 75.7971 35.7321C75.5276 35.923 75.2306 36.0207 74.904 36.0207C74.4769 36.0207 74.1092 35.8684 73.8054 35.5639C73.5039 35.2639 73.3555 34.9002 73.3555 34.4729C73.3555 34.0456 73.5062 33.6842 73.8054 33.3774C74.1092 33.0706 74.4746 32.916 74.8995 32.916C75.3243 32.916 75.6989 33.0728 76.0026 33.3888C76.3041 33.7001 76.4571 34.0706 76.4571 34.5002L76.4526 34.6093V34.607ZM76.0689 34.2661C76.0186 33.9729 75.8884 33.732 75.6737 33.5433C75.4568 33.3524 75.2032 33.2547 74.9063 33.2547C74.6094 33.2547 74.3581 33.3501 74.1389 33.5433C73.9242 33.7342 73.794 33.9752 73.746 34.2661H76.0666H76.0689Z" fill="#010101"/>
<path d="M79.8642 35.9483V35.4278H79.8528C79.5902 35.821 79.2064 36.0188 78.6971 36.0188C78.2494 36.0188 77.8726 35.871 77.5642 35.5733C77.2536 35.2756 77.1006 34.9051 77.1006 34.4619C77.1006 34.0187 77.2559 33.6527 77.5711 33.355C77.8794 33.0618 78.2563 32.9141 78.6994 32.9141C79.2179 32.9141 79.6039 33.1118 79.8551 33.5073H79.8665V32.9891H80.2479V35.946H79.8665L79.8642 35.9483ZM79.5468 33.6186C79.3161 33.3777 79.0329 33.2573 78.6971 33.2573C78.3454 33.2573 78.0553 33.3732 77.8246 33.605C77.5939 33.8368 77.4797 34.1278 77.4797 34.4778C77.4797 34.8278 77.5962 35.1096 77.8269 35.3392C78.0576 35.5665 78.3477 35.6801 78.6971 35.6801C79.0466 35.6801 79.3138 35.5619 79.5468 35.3233C79.7752 35.0892 79.8894 34.8051 79.8894 34.4732C79.8894 34.1414 79.7752 33.855 79.5468 33.6186Z" fill="#010101"/>
<path d="M81.123 35.9478V31.9453H81.5022V35.9478H81.123Z" fill="#010101"/>
<path d="M83.1261 33.3317V35.9478H82.7469V33.3317H82.1211V32.9908H82.7469V31.9453H83.1261V32.9908H83.8364V33.3317H83.1261Z" fill="#010101"/>
<path d="M86.6436 35.9478V34.3227C86.6436 34.1636 86.623 34.0182 86.5796 33.8841C86.5317 33.7272 86.4586 33.6022 86.3604 33.509C86.1799 33.3408 85.9652 33.2545 85.7163 33.2545C85.4673 33.2545 85.2503 33.3386 85.0699 33.509C84.9717 33.5999 84.9009 33.7227 84.8529 33.8727C84.8118 34.0022 84.7913 34.1432 84.7913 34.2932V35.9478H84.4121V31.9453H84.7913V33.3681H84.8027C84.9991 33.0658 85.3029 32.9135 85.7186 32.9135C86.1343 32.9135 86.4586 33.0454 86.6916 33.309C86.9154 33.5613 87.025 33.9 87.025 34.3204V35.9455H86.6459L86.6436 35.9478Z" fill="#010101"/>
<path d="M90.8734 35.0775C90.5537 35.7048 90.0603 36.0207 89.3957 36.0207C88.9526 36.0207 88.578 35.873 88.2674 35.5775C87.9545 35.2775 87.7969 34.9116 87.7969 34.4752C87.7969 34.0388 87.9545 33.6729 88.2697 33.3683C88.5826 33.0683 88.9572 32.916 89.3934 32.916C89.72 32.916 90.0169 33.0024 90.2819 33.1728C90.5537 33.3479 90.7501 33.5865 90.8711 33.8865H90.4532C90.2316 33.4683 89.8822 33.2592 89.4048 33.2592C89.0622 33.2592 88.7744 33.3751 88.5369 33.607C88.2971 33.8388 88.176 34.1252 88.176 34.4638C88.176 34.8025 88.2948 35.0957 88.5323 35.3298C88.7699 35.5639 89.0599 35.6798 89.4048 35.6798C89.8936 35.6798 90.243 35.4798 90.4532 35.0775H90.8711H90.8734Z" fill="#010101"/>
<path d="M94.2763 35.9483V35.4278H94.2649C94.0023 35.821 93.6185 36.0188 93.1092 36.0188C92.6615 36.0188 92.2847 35.871 91.9763 35.5733C91.6657 35.2756 91.5127 34.9051 91.5127 34.4619C91.5127 34.0187 91.668 33.6527 91.9832 33.355C92.2915 33.0618 92.6684 32.9141 93.1115 32.9141C93.63 32.9141 94.016 33.1118 94.2672 33.5073H94.2786V32.9891H94.6601V35.946H94.2786L94.2763 35.9483ZM93.9589 33.6186C93.7282 33.3777 93.445 33.2573 93.1092 33.2573C92.7575 33.2573 92.4674 33.3732 92.2367 33.605C92.006 33.8368 91.8918 34.1278 91.8918 34.4778C91.8918 34.8278 92.0083 35.1096 92.239 35.3392C92.4697 35.5665 92.7598 35.6801 93.1092 35.6801C93.4587 35.6801 93.7259 35.5619 93.9589 35.3233C94.1873 35.0892 94.3015 34.8051 94.3015 34.4732C94.3015 34.1414 94.1873 33.855 93.9589 33.6186Z" fill="#010101"/>
<path d="M96.764 33.3164C96.1975 33.3618 95.9143 33.6641 95.9143 34.2187V35.9483H95.5352V32.9913H95.9143V33.4186H95.9257C96.0034 33.2414 96.1153 33.1118 96.2615 33.0323C96.3825 32.9686 96.5493 32.93 96.764 32.9141V33.3164Z" fill="#010101"/>
<path d="M100.306 34.607H97.5996C97.6133 34.8979 97.7366 35.148 97.9673 35.3616C98.198 35.573 98.4583 35.6775 98.753 35.6775C98.9859 35.6775 99.2006 35.6162 99.3948 35.4934C99.5958 35.3639 99.7374 35.1934 99.8173 34.9798H100.219C100.11 35.2889 99.9201 35.5412 99.6506 35.7321C99.3811 35.923 99.0842 36.0207 98.7575 36.0207C98.3304 36.0207 97.9627 35.8684 97.6589 35.5639C97.3574 35.2639 97.209 34.9002 97.209 34.4729C97.209 34.0456 97.3597 33.6842 97.6589 33.3774C97.9627 33.0706 98.3282 32.916 98.753 32.916C99.1778 32.916 99.5524 33.0728 99.8562 33.3888C100.158 33.7001 100.311 34.0706 100.311 34.5002L100.306 34.6093V34.607ZM99.9224 34.2661C99.8721 33.9729 99.742 33.732 99.5273 33.5433C99.3103 33.3524 99.0567 33.2547 98.7598 33.2547C98.4629 33.2547 98.2117 33.3501 97.9924 33.5433C97.7777 33.7342 97.6475 33.9752 97.5996 34.2661H99.9201H99.9224Z" fill="#010101"/>
<path d="M105.45 35.573C105.142 35.8707 104.765 36.0185 104.317 36.0185C103.817 36.0185 103.431 35.8207 103.157 35.4275H103.146V36.9844H102.767V32.991H103.146V33.5092H103.157C103.438 33.1138 103.824 32.916 104.317 32.916C104.761 32.916 105.135 33.0637 105.441 33.3569C105.756 33.6547 105.914 34.0229 105.914 34.4638C105.914 34.9048 105.759 35.2775 105.45 35.5752V35.573ZM105.19 33.6047C104.959 33.3729 104.669 33.2569 104.317 33.2569C103.966 33.2569 103.701 33.3774 103.468 33.6183C103.239 33.857 103.125 34.1411 103.125 34.4729C103.125 34.8048 103.239 35.0889 103.468 35.323C103.698 35.5593 103.982 35.6798 104.317 35.6798C104.653 35.6798 104.955 35.5662 105.185 35.3389C105.416 35.1093 105.533 34.8229 105.533 34.4775C105.533 34.132 105.418 33.8365 105.19 33.6047Z" fill="#010101"/>
<path d="M107.896 33.3164C107.329 33.3618 107.046 33.6641 107.046 34.2187V35.9483H106.667V32.9913H107.046V33.4186H107.058C107.135 33.2414 107.247 33.1118 107.393 33.0323C107.514 32.9686 107.681 32.93 107.896 32.9141V33.3164Z" fill="#010101"/>
<path d="M111.013 35.56C110.707 35.8668 110.342 36.0191 109.915 36.0191C109.488 36.0191 109.134 35.8668 108.828 35.5645C108.519 35.2622 108.366 34.9031 108.366 34.4872C108.366 34.0713 108.517 33.6894 108.816 33.3803C109.118 33.0689 109.485 32.9121 109.915 32.9121C110.344 32.9121 110.703 33.0644 111.011 33.3712C111.319 33.6781 111.472 34.0417 111.472 34.4645C111.472 34.8872 111.319 35.2531 111.013 35.5577V35.56ZM110.751 33.6121C110.52 33.3758 110.244 33.2553 109.922 33.2553C109.6 33.2553 109.31 33.378 109.081 33.6258C108.857 33.8644 108.748 34.1508 108.748 34.4826C108.748 34.8145 108.862 35.0872 109.09 35.3213C109.321 35.5577 109.597 35.6782 109.924 35.6782C110.251 35.6782 110.541 35.5577 110.767 35.3145C110.986 35.0781 111.096 34.7895 111.096 34.4508C111.096 34.1122 110.981 33.8463 110.753 33.6121H110.751Z" fill="#010101"/>
<path d="M114.86 35.9478V35.4273H114.849C114.584 35.8205 114.198 36.0183 113.693 36.0183C113.246 36.0183 112.869 35.8705 112.56 35.5728C112.25 35.275 112.097 34.9046 112.097 34.4614C112.097 34.0182 112.254 33.6522 112.567 33.3545C112.878 33.0613 113.252 32.9135 113.695 32.9135C114.2 32.9135 114.584 33.109 114.851 33.4977H114.863V31.9453H115.244V35.9478H114.863H114.86ZM114.543 33.6181C114.312 33.3772 114.029 33.2567 113.693 33.2567C113.341 33.2567 113.051 33.3727 112.821 33.6045C112.59 33.8363 112.476 34.1272 112.476 34.4773C112.476 34.8273 112.592 35.1091 112.823 35.3387C113.054 35.566 113.344 35.6796 113.693 35.6796C114.043 35.6796 114.31 35.5614 114.543 35.3228C114.771 35.0887 114.885 34.8046 114.885 34.4727C114.885 34.1409 114.771 33.8545 114.543 33.6181Z" fill="#010101"/>
<path d="M118.373 35.9482V35.4891H118.362C118.279 35.6641 118.147 35.7959 117.967 35.8891C117.802 35.9754 117.617 36.0186 117.409 36.0186C116.964 36.0186 116.624 35.8709 116.388 35.5754C116.29 35.4527 116.222 35.3027 116.178 35.1231C116.144 34.9799 116.128 34.8117 116.128 34.6208V32.9889H116.507V34.614C116.507 34.9458 116.573 35.1981 116.703 35.3731C116.854 35.5732 117.089 35.6732 117.409 35.6732C117.66 35.6732 117.871 35.5936 118.04 35.4322C118.161 35.3186 118.243 35.1822 118.291 35.0254C118.33 34.9004 118.35 34.7413 118.35 34.5481V32.9844H118.729V35.9414H118.371L118.373 35.9482Z" fill="#010101"/>
<path d="M122.582 35.0775C122.263 35.7048 121.769 36.0207 121.105 36.0207C120.662 36.0207 120.287 35.873 119.976 35.5775C119.663 35.2775 119.506 34.9116 119.506 34.4752C119.506 34.0388 119.663 33.6729 119.979 33.3683C120.292 33.0683 120.666 32.916 121.102 32.916C121.429 32.916 121.726 33.0024 121.991 33.1728C122.263 33.3479 122.459 33.5865 122.58 33.8865H122.162C121.941 33.4683 121.591 33.2592 121.114 33.2592C120.771 33.2592 120.483 33.3751 120.246 33.607C120.006 33.8388 119.885 34.1252 119.885 34.4638C119.885 34.8025 120.004 35.0957 120.241 35.3298C120.479 35.5639 120.769 35.6798 121.114 35.6798C121.603 35.6798 121.952 35.4798 122.162 35.0775H122.58H122.582Z" fill="#010101"/>
<path d="M124.071 33.3317V35.9478H123.692V33.3317H123.066V32.9908H123.692V31.9453H124.071V32.9908H124.782V33.3317H124.071Z" fill="#010101"/>
<path d="M126.065 36.0185C125.8 36.0185 125.581 35.9321 125.409 35.7594C125.238 35.5866 125.151 35.3684 125.151 35.1048V35.0707H125.531C125.537 35.4752 125.716 35.6775 126.063 35.6775C126.433 35.6775 126.618 35.5002 126.618 35.148C126.618 34.9752 126.547 34.8388 126.403 34.7366C126.346 34.6957 126.273 34.657 126.179 34.6184L125.928 34.5206C125.823 34.4797 125.736 34.4434 125.672 34.4115C125.583 34.3661 125.51 34.3161 125.453 34.2638C125.309 34.1343 125.238 33.957 125.238 33.7365C125.238 33.4956 125.318 33.2979 125.48 33.1456C125.64 32.9933 125.841 32.916 126.086 32.916C126.314 32.916 126.506 32.9933 126.661 33.1478C126.816 33.3024 126.894 33.4933 126.894 33.7206H126.515C126.497 33.4115 126.346 33.2569 126.07 33.2569C125.768 33.2569 125.62 33.4047 125.62 33.7001C125.62 33.8479 125.69 33.9661 125.834 34.0547C125.889 34.0888 125.964 34.1229 126.058 34.157L126.12 34.1797C126.133 34.1843 126.156 34.1934 126.184 34.2024L126.312 34.2502C126.414 34.2911 126.499 34.3297 126.565 34.3661C126.654 34.4138 126.727 34.4684 126.784 34.5275C126.928 34.6729 126.999 34.8707 126.999 35.1161C126.999 35.7184 126.689 36.0185 126.065 36.0185Z" fill="#010101"/>
</g>
<defs>
<linearGradient id="paint0_linear_357_4179" x1="11.8403" y1="28.0402" x2="5.83187" y2="-13.2773" gradientUnits="userSpaceOnUse">
<stop stop-color="#35B558"/>
<stop offset="1" stop-color="#006669"/>
</linearGradient>
<linearGradient id="paint1_linear_357_4179" x1="30.8316" y1="-1.66373" x2="24.8172" y2="18.3718" gradientUnits="userSpaceOnUse">
<stop stop-color="#35B558"/>
<stop offset="0.44" stop-color="#008D66"/>
<stop offset="1" stop-color="#006669"/>
</linearGradient>
<linearGradient id="paint2_linear_357_4179" x1="26.2457" y1="19.2215" x2="26.2457" y2="48.6186" gradientUnits="userSpaceOnUse">
<stop stop-color="#35B558"/>
<stop offset="1" stop-color="#006669"/>
</linearGradient>
<linearGradient id="paint3_linear_357_4179" x1="4.70049" y1="40.0587" x2="16.1168" y2="22.3726" gradientUnits="userSpaceOnUse">
<stop stop-color="#35B558"/>
<stop offset="0.44" stop-color="#008D66"/>
<stop offset="1" stop-color="#006669"/>
</linearGradient>
<clipPath id="clip0_357_4179">
<rect width="127" height="42" fill="white"/>
</clipPath>
</defs>
</svg>
