<svg width="127" height="42" viewBox="0 0 127 42" fill="none" xmlns="http://www.w3.org/2000/svg">
<g clip-path="url(#clip0_357_3075)">
<path d="M19.663 18.6328H9.27079C4.15004 18.6328 0 14.5031 0 9.40733V9.2255C0 4.12977 4.15004 0 9.27079 0H14.9808V13.9758C14.9808 16.5486 17.0775 18.6328 19.6607 18.6328H19.663Z" fill="url(#paint0_linear_357_3075)"/>
<path d="M36.0759 9.31641C36.0759 13.1916 33.6982 16.5145 30.3156 17.9192C29.2079 18.3805 27.9905 18.6328 26.7137 18.6328H25.7202C22.8972 18.6328 20.2546 17.8555 18.0002 16.5032C18.0528 16.5054 18.1076 16.5077 18.1601 16.5077C19.8571 16.5077 21.2435 15.1826 21.3326 13.5144C21.3349 13.4575 21.3372 13.4007 21.3372 13.3462V0H26.7137C31.8847 0 36.0759 4.17068 36.0759 9.31641Z" fill="url(#paint1_linear_357_3075)"/>
<path d="M16.4128 23.3672H26.8051C31.9258 23.3672 36.0759 27.497 36.0759 32.5927V32.7745C36.0759 37.8702 31.9258 42 26.8051 42H21.0951V28.0243C21.0951 25.4514 18.9983 23.3672 16.4151 23.3672H16.4128Z" fill="url(#paint2_linear_357_3075)"/>
<path d="M0 32.6856C0 28.8103 2.37765 25.4874 5.76027 24.0828C6.86801 23.6214 8.08539 23.3691 9.36215 23.3691H10.3557C13.1787 23.3691 15.8213 24.1465 18.0756 25.4988C18.0231 25.4965 17.9683 25.4943 17.9158 25.4943C16.2187 25.4943 14.8324 26.8193 14.7433 28.4876C14.741 28.5444 14.7387 28.6012 14.7387 28.6558V42.002H9.36215C4.19116 42.002 0 37.8313 0 32.6856Z" fill="url(#paint3_linear_357_3075)"/>
<path d="M52.4613 10.8205L59.4321 26.6714H57.2851L55.1268 21.5961H48.631L46.4727 26.6714H44.3257L51.2736 10.8205C51.4998 10.3046 52.2329 10.3046 52.4613 10.8205ZM51.8675 13.8207L49.2203 19.9119H54.5124L51.8652 13.8207H51.8675Z" fill="#231F20"/>
<path d="M60.5649 26.6715V11.1297C60.5649 10.5411 61.2913 10.2615 61.691 10.6956L72.7296 23.1508V10.4365H74.6139V26.126C74.6139 26.7124 73.8921 26.9942 73.4924 26.5647L62.4515 14.2413V26.6738H60.5672L60.5649 26.6715Z" fill="#231F20"/>
<path d="M78.0081 26.6715V10.4365H79.9837V16.4891H88.8206V10.4365H90.8305V26.6715H88.8206V18.3642H79.9837V26.6715H78.0081Z" fill="#231F20"/>
<path d="M111.238 18.4326C111.238 19.6168 111.019 20.7305 110.578 21.7783C110.139 22.826 109.498 23.7556 108.657 24.5693C107.816 25.383 106.848 26.0103 105.754 26.4512C104.66 26.8922 103.525 27.1126 102.351 27.1126C101.177 27.1126 100.046 26.8922 98.9591 26.4512C97.8719 26.0103 96.9081 25.383 96.0675 24.5693C95.2179 23.7488 94.5738 22.8147 94.1307 21.7669C93.6876 20.7191 93.4661 19.6077 93.4661 18.4326C93.4661 17.2576 93.6876 16.1325 94.1307 15.0824C94.5738 14.0324 95.2202 13.096 96.0675 12.2732C96.9012 11.4663 97.8628 10.8459 98.9545 10.4095C100.046 9.97308 101.179 9.75488 102.353 9.75488C103.527 9.75488 104.674 9.97308 105.768 10.4095C106.862 10.8459 107.826 11.4686 108.659 12.2732C109.5 13.0869 110.142 14.0188 110.58 15.0711C111.019 16.1234 111.24 17.2439 111.24 18.4326H111.238ZM102.351 25.258C103.26 25.258 104.126 25.0875 104.948 24.7443C105.77 24.4011 106.51 23.9034 107.17 23.2465C107.821 22.5988 108.319 21.8646 108.659 21.0419C109 20.2214 109.171 19.3509 109.171 18.4304C109.171 17.5098 109 16.6212 108.655 15.7848C108.31 14.9483 107.816 14.2097 107.172 13.5687C106.521 12.921 105.784 12.4278 104.961 12.0891C104.139 11.7504 103.269 11.58 102.353 11.58C101.437 11.58 100.553 11.7504 99.7265 12.0891C98.8997 12.4278 98.1688 12.921 97.5339 13.5687C96.8829 14.2233 96.385 14.9665 96.0447 15.7961C95.7044 16.6257 95.5331 17.503 95.5331 18.4304C95.5331 19.3577 95.7021 20.2168 96.0379 21.0305C96.3759 21.8442 96.8738 22.5829 97.5316 23.2465C98.1985 23.9102 98.9385 24.4102 99.7539 24.7489C100.569 25.0875 101.435 25.258 102.351 25.258Z" fill="#231F20"/>
<path d="M119.326 10.8205L126.296 26.6714H124.149L121.991 21.5961H115.495L113.337 26.6714H111.19L118.138 10.8205C118.364 10.3046 119.097 10.3046 119.326 10.8205ZM118.732 13.8207L116.085 19.9119H121.377L118.729 13.8207H118.732Z" fill="#231F20"/>
<path d="M46.3563 35.9468V34.0694H44.2778V35.9468H43.8735V31.9443H44.2778V33.7081H46.3563V31.9443H46.756V35.9468H46.3563Z" fill="#010101"/>
<path d="M50.2368 35.558C49.9307 35.8649 49.5653 36.0171 49.1382 36.0171C48.711 36.0171 48.357 35.8649 48.051 35.5626C47.7426 35.2603 47.5896 34.9012 47.5896 34.4852C47.5896 34.0693 47.7403 33.6875 48.0395 33.3784C48.341 33.067 48.7088 32.9102 49.1382 32.9102C49.5676 32.9102 49.9261 33.0624 50.2345 33.3693C50.5428 33.6761 50.6959 34.0398 50.6959 34.4625C50.6959 34.8853 50.5428 35.2512 50.2368 35.5558V35.558ZM49.9741 33.6102C49.7434 33.3738 49.4671 33.2534 49.145 33.2534C48.823 33.2534 48.5329 33.3761 48.3045 33.6238C48.0807 33.8625 47.971 34.1489 47.971 34.4807C47.971 34.8125 48.0852 35.0853 48.3136 35.3194C48.5443 35.5558 48.8207 35.6762 49.1473 35.6762C49.4739 35.6762 49.764 35.5558 49.9901 35.3126C50.2094 35.0762 50.319 34.7875 50.319 34.4489C50.319 34.1102 50.2048 33.8443 49.9764 33.6102H49.9741Z" fill="#010101"/>
<path d="M53.6856 35.9472V35.4881H53.6742C53.592 35.6631 53.4595 35.7949 53.2791 35.8881C53.1146 35.9745 52.9296 36.0177 52.7218 36.0177C52.2764 36.0177 51.9361 35.8699 51.7008 35.5744C51.6026 35.4517 51.5341 35.3017 51.4907 35.1222C51.4564 34.979 51.4404 34.8108 51.4404 34.6199V32.9879H51.8196V34.613C51.8196 34.9449 51.8858 35.1972 52.016 35.3722C52.1667 35.5722 52.402 35.6722 52.7218 35.6722C52.973 35.6722 53.1831 35.5926 53.3521 35.4313C53.4732 35.3176 53.5554 35.1812 53.6034 35.0244C53.6422 34.8994 53.6628 34.7403 53.6628 34.5471V32.9834H54.0419V35.9404H53.6833L53.6856 35.9472Z" fill="#010101"/>
<path d="M55.6431 36.0175C55.3782 36.0175 55.1589 35.9311 54.9876 35.7584C54.8163 35.5856 54.7295 35.3674 54.7295 35.1038V35.0697H55.1086C55.1155 35.4743 55.2936 35.6766 55.6408 35.6766C56.0108 35.6766 56.1958 35.4993 56.1958 35.147C56.1958 34.9742 56.125 34.8379 55.9811 34.7356C55.924 34.6947 55.8509 34.656 55.7573 34.6174L55.5061 34.5197C55.401 34.4788 55.3142 34.4424 55.2525 34.4106C55.1635 34.3651 55.0904 34.3151 55.0333 34.2628C54.8894 34.1333 54.8186 33.956 54.8186 33.7355C54.8186 33.4946 54.8985 33.2969 55.0607 33.1446C55.2206 32.9923 55.4215 32.915 55.6659 32.915C55.8943 32.915 56.0862 32.9923 56.2415 33.1469C56.3968 33.3014 56.4745 33.4923 56.4745 33.7196H56.0953C56.0748 33.4105 55.9263 33.256 55.6499 33.256C55.3485 33.256 55.2 33.4037 55.2 33.6992C55.2 33.8469 55.2708 33.9651 55.4147 34.0537C55.4695 34.0878 55.5426 34.1219 55.6385 34.156L55.7002 34.1787C55.7139 34.1833 55.7345 34.1924 55.7641 34.2015L55.8921 34.2492C55.9948 34.2901 56.0793 34.3287 56.1479 34.3651C56.2369 34.4128 56.31 34.4674 56.3671 34.5265C56.511 34.672 56.5818 34.8697 56.5818 35.1152C56.5818 35.7175 56.2712 36.0175 55.6477 36.0175H55.6431Z" fill="#010101"/>
<path d="M60.1974 34.606H57.4908C57.5045 34.897 57.6279 35.147 57.8585 35.3606C58.0892 35.572 58.3496 35.6766 58.6442 35.6766C58.8772 35.6766 59.0919 35.6152 59.2861 35.4925C59.487 35.3629 59.6287 35.1924 59.7086 34.9788H60.1129C60.0032 35.2879 59.8137 35.5402 59.5441 35.7311C59.2746 35.922 58.9777 36.0197 58.6511 36.0197C58.224 36.0197 57.8563 35.8675 57.5525 35.5629C57.251 35.2629 57.1025 34.8992 57.1025 34.4719C57.1025 34.0446 57.2533 33.6833 57.5525 33.3764C57.8563 33.0696 58.2217 32.915 58.6442 32.915C59.0668 32.915 59.4436 33.0719 59.7474 33.3878C60.0489 33.6992 60.2019 34.0696 60.2019 34.4992L60.1974 34.6083V34.606ZM59.8137 34.2651C59.7634 33.9719 59.6332 33.731 59.4185 33.5423C59.2038 33.3514 58.948 33.2537 58.6511 33.2537C58.3542 33.2537 58.1029 33.3492 57.8837 33.5423C57.669 33.7333 57.5388 33.9742 57.4908 34.2651H59.8114H59.8137Z" fill="#010101"/>
<path d="M65.1879 35.558C64.8819 35.8649 64.5164 36.0171 64.0893 36.0171C63.6622 36.0171 63.3082 35.8649 63.0021 35.5626C62.6938 35.2603 62.5408 34.9012 62.5408 34.4852C62.5408 34.0693 62.6915 33.6875 62.9907 33.3784C63.2922 33.067 63.6599 32.9102 64.0893 32.9102C64.5187 32.9102 64.8773 33.0624 65.1834 33.3693C65.4917 33.6761 65.6447 34.0398 65.6447 34.4625C65.6447 34.8853 65.4917 35.2512 65.1857 35.5558L65.1879 35.558ZM64.9253 33.6102C64.6946 33.3738 64.4182 33.2534 64.0962 33.2534C63.7741 33.2534 63.4841 33.3761 63.2557 33.6238C63.0318 33.8625 62.9222 34.1489 62.9222 34.4807C62.9222 34.8125 63.0364 35.0853 63.2648 35.3194C63.4955 35.5558 63.7719 35.6762 64.0985 35.6762C64.4251 35.6762 64.7151 35.5558 64.9413 35.3126C65.1605 35.0762 65.2702 34.7875 65.2702 34.4489C65.2702 34.1102 65.156 33.8443 64.9276 33.6102H64.9253Z" fill="#010101"/>
<path d="M67.0014 33.3309V35.947H66.6223V33.3309H66.1609V32.99H66.6223L66.6268 32.8786C66.6268 32.8354 66.6314 32.7991 66.636 32.7673C66.6428 32.6854 66.6542 32.6104 66.6725 32.5445C66.7387 32.299 66.8758 32.124 67.0836 32.0149C67.2549 31.924 67.481 31.8786 67.762 31.874V32.224C67.2549 32.224 67.0014 32.4718 67.0014 32.965V32.9854H67.762V33.3264H67.0014V33.3309Z" fill="#010101"/>
<path d="M72.2158 35.9468V34.3217C72.2158 34.1626 72.1953 34.0172 72.1519 33.8831C72.1039 33.7263 72.0308 33.6012 71.9326 33.5081C71.7522 33.3399 71.5375 33.2535 71.2885 33.2535C71.0396 33.2535 70.8226 33.3376 70.6422 33.5081C70.544 33.599 70.4732 33.7217 70.4252 33.8717C70.3841 34.0013 70.3635 34.1422 70.3635 34.2922V35.9468H69.9844V31.9443H70.3635V33.3671H70.3749C70.5714 33.0648 70.8751 32.9126 71.2908 32.9126C71.7065 32.9126 72.0308 33.0444 72.2638 33.308C72.4877 33.5603 72.5973 33.899 72.5973 34.3195V35.9446H72.2181L72.2158 35.9468Z" fill="#010101"/>
<path d="M76.4526 34.606H73.746C73.7597 34.897 73.8831 35.147 74.1138 35.3606C74.3444 35.572 74.6048 35.6766 74.8995 35.6766C75.1324 35.6766 75.3471 35.6152 75.5413 35.4925C75.7423 35.3629 75.8839 35.1924 75.9638 34.9788H76.3658C76.2562 35.2879 76.0666 35.5402 75.7971 35.7311C75.5276 35.922 75.2306 36.0197 74.904 36.0197C74.4769 36.0197 74.1092 35.8675 73.8054 35.5629C73.5039 35.2629 73.3555 34.8992 73.3555 34.4719C73.3555 34.0446 73.5062 33.6833 73.8054 33.3764C74.1092 33.0696 74.4746 32.915 74.8995 32.915C75.3243 32.915 75.6989 33.0719 76.0026 33.3878C76.3041 33.6992 76.4571 34.0696 76.4571 34.4992L76.4526 34.6083V34.606ZM76.0689 34.2651C76.0186 33.9719 75.8884 33.731 75.6737 33.5423C75.4568 33.3514 75.2032 33.2537 74.9063 33.2537C74.6094 33.2537 74.3581 33.3492 74.1389 33.5423C73.9242 33.7333 73.794 33.9742 73.746 34.2651H76.0666H76.0689Z" fill="#010101"/>
<path d="M79.865 35.9473V35.4269H79.8535C79.5909 35.8201 79.2072 36.0178 78.6978 36.0178C78.2502 36.0178 77.8733 35.8701 77.565 35.5723C77.2543 35.2746 77.1013 34.9041 77.1013 34.4609C77.1013 34.0177 77.2566 33.6518 77.5718 33.354C77.8802 33.0608 78.257 32.9131 78.7001 32.9131C79.2186 32.9131 79.6046 33.1108 79.8558 33.5063H79.8672V32.9881H80.2487V35.9451H79.8672L79.865 35.9473ZM79.5475 33.6177C79.3168 33.3767 79.0336 33.2563 78.6978 33.2563C78.3461 33.2563 78.056 33.3722 77.8253 33.604C77.5947 33.8359 77.4805 34.1268 77.4805 34.4768C77.4805 34.8268 77.5969 35.1087 77.8276 35.3382C78.0583 35.5655 78.3484 35.6791 78.6978 35.6791C79.0473 35.6791 79.3145 35.561 79.5475 35.3223C79.7759 35.0882 79.8901 34.8041 79.8901 34.4723C79.8901 34.1404 79.7759 33.854 79.5475 33.6177Z" fill="#010101"/>
<path d="M81.1235 35.9468V31.9443H81.5027V35.9468H81.1235Z" fill="#010101"/>
<path d="M83.1266 33.3308V35.9468H82.7474V33.3308H82.1216V32.9898H82.7474V31.9443H83.1266V32.9898H83.8369V33.3308H83.1266Z" fill="#010101"/>
<path d="M86.6438 35.9468V34.3217C86.6438 34.1626 86.6233 34.0172 86.5799 33.8831C86.5319 33.7263 86.4588 33.6012 86.3606 33.5081C86.1802 33.3399 85.9655 33.2535 85.7165 33.2535C85.4676 33.2535 85.2506 33.3376 85.0701 33.5081C84.9719 33.599 84.9011 33.7217 84.8532 33.8717C84.8121 34.0013 84.7915 34.1422 84.7915 34.2922V35.9468H84.4124V31.9443H84.7915V33.3671H84.8029C84.9993 33.0648 85.3031 32.9126 85.7188 32.9126C86.1345 32.9126 86.4588 33.0444 86.6918 33.308C86.9156 33.5603 87.0253 33.899 87.0253 34.3195V35.9446H86.6461L86.6438 35.9468Z" fill="#010101"/>
<path d="M90.8739 35.0765C90.5542 35.7038 90.0608 36.0197 89.3962 36.0197C88.9531 36.0197 88.5785 35.872 88.2679 35.5765C87.955 35.2765 87.7974 34.9106 87.7974 34.4742C87.7974 34.0378 87.955 33.6719 88.2702 33.3673C88.5831 33.0673 88.9576 32.915 89.3939 32.915C89.7205 32.915 90.0174 33.0014 90.2824 33.1719C90.5542 33.3469 90.7506 33.5855 90.8716 33.8855H90.4537C90.2321 33.4673 89.8827 33.2582 89.4053 33.2582C89.0627 33.2582 88.7749 33.3742 88.5374 33.606C88.2976 33.8378 88.1765 34.1242 88.1765 34.4628C88.1765 34.8015 88.2953 35.0947 88.5328 35.3288C88.7704 35.5629 89.0604 35.6788 89.4053 35.6788C89.8941 35.6788 90.2435 35.4788 90.4537 35.0765H90.8716H90.8739Z" fill="#010101"/>
<path d="M94.2771 35.9473V35.4269H94.2657C94.003 35.8201 93.6193 36.0178 93.1099 36.0178C92.6623 36.0178 92.2854 35.8701 91.9771 35.5723C91.6665 35.2746 91.5134 34.9041 91.5134 34.4609C91.5134 34.0177 91.6687 33.6518 91.9839 33.354C92.2923 33.0608 92.6691 32.9131 93.1122 32.9131C93.6307 32.9131 94.0167 33.1108 94.2679 33.5063H94.2794V32.9881H94.6608V35.9451H94.2794L94.2771 35.9473ZM93.9596 33.6177C93.7289 33.3767 93.4457 33.2563 93.1099 33.2563C92.7582 33.2563 92.4681 33.3722 92.2375 33.604C92.0068 33.8359 91.8926 34.1268 91.8926 34.4768C91.8926 34.8268 92.0091 35.1087 92.2397 35.3382C92.4704 35.5655 92.7605 35.6791 93.1099 35.6791C93.4594 35.6791 93.7266 35.561 93.9596 35.3223C94.188 35.0882 94.3022 34.8041 94.3022 34.4723C94.3022 34.1404 94.188 33.854 93.9596 33.6177Z" fill="#010101"/>
<path d="M96.7644 33.3154C96.198 33.3608 95.9148 33.6631 95.9148 34.2177V35.9473H95.5356V32.9904H95.9148V33.4177H95.9262C96.0039 33.2404 96.1158 33.1108 96.262 33.0313C96.383 32.9676 96.5497 32.929 96.7644 32.9131V33.3154Z" fill="#010101"/>
<path d="M100.307 34.606H97.6003C97.614 34.897 97.7373 35.147 97.968 35.3606C98.1987 35.572 98.4591 35.6766 98.7537 35.6766C98.9867 35.6766 99.2014 35.6152 99.3955 35.4925C99.5965 35.3629 99.7381 35.1924 99.8181 34.9788H100.22C100.11 35.2879 99.9208 35.5402 99.6513 35.7311C99.3818 35.922 99.0849 36.0197 98.7583 36.0197C98.3312 36.0197 97.9634 35.8675 97.6597 35.5629C97.3582 35.2629 97.2097 34.8992 97.2097 34.4719C97.2097 34.0446 97.3605 33.6833 97.6597 33.3764C97.9634 33.0696 98.3289 32.915 98.7537 32.915C99.1785 32.915 99.5531 33.0719 99.8569 33.3878C100.158 33.6992 100.311 34.0696 100.311 34.4992L100.307 34.6083V34.606ZM99.9231 34.2651C99.8729 33.9719 99.7427 33.731 99.528 33.5423C99.311 33.3514 99.0575 33.2537 98.7606 33.2537C98.4636 33.2537 98.2124 33.3492 97.9931 33.5423C97.7784 33.7333 97.6483 33.9742 97.6003 34.2651H99.9208H99.9231Z" fill="#010101"/>
<path d="M105.45 35.572C105.142 35.8697 104.765 36.0175 104.317 36.0175C103.817 36.0175 103.431 35.8197 103.157 35.4265H103.146V36.9834H102.767V32.99H103.146V33.5082H103.157C103.438 33.1128 103.824 32.915 104.317 32.915C104.761 32.915 105.135 33.0628 105.441 33.356C105.756 33.6537 105.914 34.0219 105.914 34.4628C105.914 34.9038 105.759 35.2765 105.45 35.5743V35.572ZM105.19 33.6037C104.959 33.3719 104.669 33.256 104.317 33.256C103.966 33.256 103.701 33.3764 103.468 33.6173C103.239 33.856 103.125 34.1401 103.125 34.4719C103.125 34.8038 103.239 35.0879 103.468 35.322C103.698 35.5584 103.982 35.6788 104.317 35.6788C104.653 35.6788 104.955 35.5652 105.185 35.3379C105.416 35.1083 105.533 34.822 105.533 34.4765C105.533 34.131 105.418 33.8355 105.19 33.6037Z" fill="#010101"/>
<path d="M107.897 33.3154C107.33 33.3608 107.047 33.6631 107.047 34.2177V35.9473H106.668V32.9904H107.047V33.4177H107.058C107.136 33.2404 107.248 33.1108 107.394 33.0313C107.515 32.9676 107.682 32.929 107.897 32.9131V33.3154Z" fill="#010101"/>
<path d="M111.014 35.558C110.708 35.8649 110.343 36.0171 109.916 36.0171C109.489 36.0171 109.135 35.8649 108.829 35.5626C108.52 35.2603 108.367 34.9012 108.367 34.4852C108.367 34.0693 108.518 33.6875 108.817 33.3784C109.119 33.067 109.486 32.9102 109.916 32.9102C110.345 32.9102 110.704 33.0624 111.012 33.3693C111.32 33.6761 111.473 34.0398 111.473 34.4625C111.473 34.8853 111.32 35.2512 111.014 35.5558V35.558ZM110.752 33.6102C110.521 33.3738 110.245 33.2534 109.923 33.2534C109.601 33.2534 109.31 33.3761 109.082 33.6238C108.858 33.8625 108.749 34.1489 108.749 34.4807C108.749 34.8125 108.863 35.0853 109.091 35.3194C109.322 35.5558 109.598 35.6762 109.925 35.6762C110.251 35.6762 110.542 35.5558 110.768 35.3126C110.987 35.0762 111.097 34.7875 111.097 34.4489C111.097 34.1102 110.982 33.8443 110.754 33.6102H110.752Z" fill="#010101"/>
<path d="M114.861 35.9468V35.4263H114.849C114.584 35.8195 114.198 36.0173 113.693 36.0173C113.246 36.0173 112.869 35.8695 112.561 35.5718C112.25 35.2741 112.097 34.9036 112.097 34.4604C112.097 34.0172 112.255 33.6512 112.567 33.3535C112.878 33.0603 113.253 32.9126 113.696 32.9126C114.2 32.9126 114.584 33.108 114.851 33.4967H114.863V31.9443H115.244V35.9468H114.863H114.861ZM114.543 33.6172C114.312 33.3762 114.029 33.2558 113.693 33.2558C113.342 33.2558 113.052 33.3717 112.821 33.6035C112.59 33.8353 112.476 34.1263 112.476 34.4763C112.476 34.8263 112.593 35.1081 112.823 35.3377C113.054 35.565 113.344 35.6786 113.693 35.6786C114.043 35.6786 114.31 35.5604 114.543 35.3218C114.771 35.0877 114.886 34.8036 114.886 34.4717C114.886 34.1399 114.771 33.8535 114.543 33.6172Z" fill="#010101"/>
<path d="M118.373 35.9472V35.4881H118.362C118.28 35.6631 118.147 35.7949 117.967 35.8881C117.802 35.9745 117.617 36.0177 117.409 36.0177C116.964 36.0177 116.624 35.8699 116.389 35.5744C116.29 35.4517 116.222 35.3017 116.178 35.1222C116.144 34.979 116.128 34.8108 116.128 34.6199V32.9879H116.507V34.613C116.507 34.9449 116.574 35.1972 116.704 35.3722C116.854 35.5722 117.09 35.6722 117.409 35.6722C117.661 35.6722 117.871 35.5926 118.04 35.4313C118.161 35.3176 118.243 35.1812 118.291 35.0244C118.33 34.8994 118.351 34.7403 118.351 34.5471V32.9834H118.73V35.9404H118.371L118.373 35.9472Z" fill="#010101"/>
<path d="M122.583 35.0765C122.263 35.7038 121.77 36.0197 121.105 36.0197C120.662 36.0197 120.287 35.872 119.977 35.5765C119.664 35.2765 119.506 34.9106 119.506 34.4742C119.506 34.0378 119.664 33.6719 119.979 33.3673C120.292 33.0673 120.666 32.915 121.103 32.915C121.429 32.915 121.726 33.0014 121.991 33.1719C122.263 33.3469 122.459 33.5855 122.58 33.8855H122.162C121.941 33.4673 121.591 33.2582 121.114 33.2582C120.771 33.2582 120.484 33.3742 120.246 33.606C120.006 33.8378 119.885 34.1242 119.885 34.4628C119.885 34.8015 120.004 35.0947 120.242 35.3288C120.479 35.5629 120.769 35.6788 121.114 35.6788C121.603 35.6788 121.952 35.4788 122.162 35.0765H122.58H122.583Z" fill="#010101"/>
<path d="M124.072 33.3308V35.9468H123.693V33.3308H123.067V32.9898H123.693V31.9443H124.072V32.9898H124.782V33.3308H124.072Z" fill="#010101"/>
<path d="M126.066 36.0175C125.801 36.0175 125.582 35.9311 125.41 35.7584C125.239 35.5856 125.152 35.3674 125.152 35.1038V35.0697H125.531C125.538 35.4743 125.716 35.6766 126.064 35.6766C126.434 35.6766 126.619 35.4993 126.619 35.147C126.619 34.9742 126.548 34.8379 126.404 34.7356C126.347 34.6947 126.274 34.656 126.18 34.6174L125.929 34.5197C125.824 34.4788 125.737 34.4424 125.673 34.4106C125.584 34.3651 125.511 34.3151 125.454 34.2628C125.31 34.1333 125.239 33.956 125.239 33.7355C125.239 33.4946 125.319 33.2969 125.481 33.1446C125.641 32.9923 125.842 32.915 126.086 32.915C126.315 32.915 126.507 32.9923 126.662 33.1469C126.817 33.3014 126.895 33.4923 126.895 33.7196H126.516C126.498 33.4105 126.347 33.256 126.071 33.256C125.769 33.256 125.621 33.4037 125.621 33.6992C125.621 33.8469 125.691 33.9651 125.835 34.0537C125.89 34.0878 125.965 34.1219 126.059 34.156L126.121 34.1787C126.134 34.1833 126.157 34.1924 126.185 34.2015L126.313 34.2492C126.415 34.2901 126.5 34.3287 126.566 34.3651C126.655 34.4128 126.728 34.4674 126.785 34.5265C126.929 34.672 127 34.8697 127 35.1152C127 35.7175 126.689 36.0175 126.066 36.0175Z" fill="#010101"/>
</g>
<defs>
<linearGradient id="paint0_linear_357_3075" x1="11.8403" y1="28.0402" x2="5.83187" y2="-13.2773" gradientUnits="userSpaceOnUse">
<stop stop-color="#35B558"/>
<stop offset="1" stop-color="#006669"/>
</linearGradient>
<linearGradient id="paint1_linear_357_3075" x1="30.8318" y1="-1.66373" x2="24.8175" y2="18.3718" gradientUnits="userSpaceOnUse">
<stop stop-color="#35B558"/>
<stop offset="0.44" stop-color="#008D66"/>
<stop offset="1" stop-color="#006669"/>
</linearGradient>
<linearGradient id="paint2_linear_357_3075" x1="26.2455" y1="19.2215" x2="26.2455" y2="48.6186" gradientUnits="userSpaceOnUse">
<stop stop-color="#35B558"/>
<stop offset="1" stop-color="#006669"/>
</linearGradient>
<linearGradient id="paint3_linear_357_3075" x1="4.70049" y1="40.0587" x2="16.1168" y2="22.3726" gradientUnits="userSpaceOnUse">
<stop stop-color="#35B558"/>
<stop offset="0.44" stop-color="#008D66"/>
<stop offset="1" stop-color="#006669"/>
</linearGradient>
<clipPath id="clip0_357_3075">
<rect width="127" height="42" fill="white"/>
</clipPath>
</defs>
</svg>
