<svg width="80" height="112" viewBox="0 0 80 112" fill="none" xmlns="http://www.w3.org/2000/svg">
<g clip-path="url(#clip0_357_3300)">
<path d="M40 0C17.9091 0 0 18.1846 0 40.6154C0 73.2308 40 112 40 112C40 112 80 71.3846 80 40.6154C80 18.1846 62.0909 0 40 0ZM40 73.2308C22.2606 73.2308 7.87879 58.6277 7.87879 40.6154C7.87879 22.6031 22.2606 8 40 8C57.7394 8 72.1212 22.6031 72.1212 40.6154C72.1212 58.6277 57.7394 73.2308 40 73.2308Z" fill="#018267"/>
<path d="M47.3582 29.6254C47.043 34.6531 44.7279 38.69 42.2248 41.8592C39.4551 45.3731 35.946 48.0561 35.0066 53.3792C34.3097 57.3423 36.3157 63.41 40.1157 67.6069C33.9642 65.8407 29.0248 60.5854 29.0915 52.5669C29.1885 41.6869 35.6551 36.8377 34.043 14.1484C45.0854 17.3361 47.6369 25.1577 47.3521 29.6192L47.3582 29.6254Z" fill="url(#paint0_linear_357_3300)"/>
<path d="M53.637 33.6738C46.4855 44.4369 40.9764 45.8031 37.7098 50.9907C35.631 54.2954 35.9764 59.0215 38.5643 64.1169C37.037 59.9631 38.4007 55.5692 41.7219 53.5507C46.2189 50.8184 50.6673 50.4123 53.631 45.6738C56.1098 41.7108 56.3158 37.2369 53.631 33.6738H53.637Z" fill="url(#paint1_linear_357_3300)"/>
</g>
<defs>
<linearGradient id="paint0_linear_357_3300" x1="28.4355" y1="57.2312" x2="48.508" y2="20.4438" gradientUnits="userSpaceOnUse">
<stop stop-color="#166936"/>
<stop offset="0.76" stop-color="#8FC33E"/>
<stop offset="1" stop-color="#F8EC38"/>
</linearGradient>
<linearGradient id="paint1_linear_357_3300" x1="35.7052" y1="59.8133" x2="58.2636" y2="36.8249" gradientUnits="userSpaceOnUse">
<stop stop-color="#166936"/>
<stop offset="0.76" stop-color="#8FC33E"/>
<stop offset="1" stop-color="#F8EC38"/>
</linearGradient>
<clipPath id="clip0_357_3300">
<rect width="80" height="112" fill="white"/>
</clipPath>
</defs>
</svg>
