<svg width="127" height="42" viewBox="0 0 127 42" fill="none" xmlns="http://www.w3.org/2000/svg">
<g clip-path="url(#clip0_73_329)">
<path d="M19.663 18.6328H9.27079C4.15004 18.6328 0 14.5031 0 9.40733V9.2255C0 4.12977 4.15004 0 9.27079 0H14.9808V13.9758C14.9808 16.5486 17.0775 18.6328 19.6607 18.6328H19.663Z" fill="url(#paint0_linear_73_329)"/>
<path d="M36.0759 9.31641C36.0759 13.1916 33.6982 16.5145 30.3156 17.9192C29.2079 18.3805 27.9905 18.6328 26.7137 18.6328H25.7202C22.8972 18.6328 20.2546 17.8555 18.0002 16.5032C18.0528 16.5054 18.1076 16.5077 18.1601 16.5077C19.8571 16.5077 21.2435 15.1826 21.3326 13.5144C21.3349 13.4575 21.3372 13.4007 21.3372 13.3462V0H26.7137C31.8847 0 36.0759 4.17068 36.0759 9.31641Z" fill="url(#paint1_linear_73_329)"/>
<path d="M16.4129 23.3672H26.8051C31.9259 23.3672 36.0759 27.497 36.0759 32.5927V32.7745C36.0759 37.8702 31.9259 42 26.8051 42H21.0951V28.0243C21.0951 25.4514 18.9984 23.3672 16.4152 23.3672H16.4129Z" fill="url(#paint2_linear_73_329)"/>
<path d="M0 32.686C0 28.8108 2.37765 25.4879 5.76027 24.0833C6.86801 23.6219 8.08539 23.3696 9.36215 23.3696H10.3557C13.1787 23.3696 15.8213 24.1469 18.0756 25.4993C18.0231 25.497 17.9683 25.4947 17.9158 25.4947C16.2187 25.4947 14.8324 26.8198 14.7433 28.4881C14.741 28.5449 14.7387 28.6017 14.7387 28.6563V42.0025H9.36215C4.19116 42.0025 0 37.8318 0 32.686Z" fill="url(#paint3_linear_73_329)"/>
<path d="M52.4614 10.821L59.4322 26.6719H57.2852L55.1268 21.5966H48.6311L46.4727 26.6719H44.3257L51.2737 10.821C51.4998 10.3051 52.233 10.3051 52.4614 10.821ZM51.8675 13.8212L49.2204 19.9124H54.5124L51.8653 13.8212H51.8675Z" fill="#231F20"/>
<path d="M60.5651 26.6715V11.1297C60.5651 10.5411 61.2914 10.2615 61.6911 10.6956L72.7297 23.1508V10.4365H74.614V26.126C74.614 26.7124 73.8922 26.9942 73.4925 26.5647L62.4516 14.2413V26.6738H60.5673L60.5651 26.6715Z" fill="#231F20"/>
<path d="M78.008 26.6715V10.4365H79.9837V16.4891H88.8205V10.4365H90.8304V26.6715H88.8205V18.3642H79.9837V26.6715H78.008Z" fill="#231F20"/>
<path d="M111.238 18.4326C111.238 19.6168 111.019 20.7305 110.578 21.7783C110.139 22.826 109.498 23.7556 108.657 24.5693C107.817 25.383 106.848 26.0103 105.754 26.4512C104.66 26.8922 103.525 27.1126 102.351 27.1126C101.177 27.1126 100.046 26.8922 98.9592 26.4512C97.872 26.0103 96.9082 25.383 96.0677 24.5693C95.218 23.7488 94.5739 22.8147 94.1308 21.7669C93.6877 20.7191 93.4662 19.6077 93.4662 18.4326C93.4662 17.2576 93.6877 16.1325 94.1308 15.0824C94.5739 14.0324 95.2203 13.096 96.0677 12.2732C96.9013 11.4663 97.8629 10.8459 98.9547 10.4095C100.046 9.97308 101.179 9.75488 102.353 9.75488C103.527 9.75488 104.674 9.97308 105.768 10.4095C106.862 10.8459 107.826 11.4686 108.659 12.2732C109.5 13.0869 110.142 14.0188 110.58 15.0711C111.019 16.1234 111.24 17.2439 111.24 18.4326H111.238ZM102.351 25.258C103.26 25.258 104.126 25.0875 104.948 24.7443C105.77 24.4011 106.51 23.9034 107.17 23.2465C107.821 22.5988 108.319 21.8646 108.659 21.0419C109 20.2214 109.171 19.3509 109.171 18.4304C109.171 17.5098 109 16.6212 108.655 15.7848C108.31 14.9483 107.817 14.2097 107.173 13.5687C106.522 12.921 105.784 12.4278 104.962 12.0891C104.139 11.7504 103.269 11.58 102.353 11.58C101.437 11.58 100.553 11.7504 99.7267 12.0891C98.8998 12.4278 98.169 12.921 97.534 13.5687C96.8831 14.2233 96.3852 14.9665 96.0448 15.7961C95.7045 16.6257 95.5332 17.503 95.5332 18.4304C95.5332 19.3577 95.7022 20.2168 96.038 21.0305C96.376 21.8442 96.8739 22.5829 97.5317 23.2465C98.1986 23.9102 98.9387 24.4102 99.7541 24.7489C100.569 25.0875 101.435 25.258 102.351 25.258Z" fill="#231F20"/>
<path d="M119.326 10.821L126.296 26.6719H124.15L121.991 21.5966H115.495L113.337 26.6719H111.19L118.138 10.821C118.364 10.3051 119.097 10.3051 119.326 10.821ZM118.732 13.8212L116.085 19.9124H121.377L118.73 13.8212H118.732Z" fill="#231F20"/>
<path d="M46.3563 35.9473V34.0699H44.2778V35.9473H43.8735V31.9448H44.2778V33.7086H46.3563V31.9448H46.756V35.9473H46.3563Z" fill="#010101"/>
<path d="M50.2368 35.559C49.9307 35.8658 49.5653 36.0181 49.1382 36.0181C48.711 36.0181 48.357 35.8658 48.051 35.5635C47.7426 35.2613 47.5896 34.9021 47.5896 34.4862C47.5896 34.0703 47.7403 33.6884 48.0395 33.3793C48.341 33.068 48.7088 32.9111 49.1382 32.9111C49.5676 32.9111 49.9261 33.0634 50.2345 33.3702C50.5428 33.6771 50.6959 34.0407 50.6959 34.4635C50.6959 34.8862 50.5428 35.2522 50.2368 35.5567V35.559ZM49.9741 33.6112C49.7434 33.3748 49.4671 33.2543 49.145 33.2543C48.823 33.2543 48.5329 33.3771 48.3045 33.6248C48.0807 33.8635 47.971 34.1498 47.971 34.4817C47.971 34.8135 48.0852 35.0862 48.3136 35.3204C48.5443 35.5567 48.8207 35.6772 49.1473 35.6772C49.4739 35.6772 49.764 35.5567 49.9901 35.3135C50.2094 35.0772 50.319 34.7885 50.319 34.4499C50.319 34.1112 50.2048 33.8453 49.9764 33.6112H49.9741Z" fill="#010101"/>
<path d="M53.6856 35.9477V35.4886H53.6742C53.592 35.6636 53.4595 35.7954 53.2791 35.8886C53.1146 35.975 52.9296 36.0181 52.7218 36.0181C52.2764 36.0181 51.9361 35.8704 51.7008 35.5749C51.6026 35.4522 51.5341 35.3022 51.4907 35.1226C51.4564 34.9795 51.4404 34.8113 51.4404 34.6203V32.9884H51.8196V34.6135C51.8196 34.9454 51.8858 35.1976 52.016 35.3727C52.1667 35.5727 52.402 35.6727 52.7218 35.6727C52.973 35.6727 53.1831 35.5931 53.3521 35.4317C53.4732 35.3181 53.5554 35.1817 53.6034 35.0249C53.6422 34.8999 53.6628 34.7408 53.6628 34.5476V32.9839H54.0419V35.9409H53.6833L53.6856 35.9477Z" fill="#010101"/>
<path d="M55.643 36.018C55.3781 36.018 55.1588 35.9316 54.9875 35.7589C54.8162 35.5861 54.7294 35.3679 54.7294 35.1043V35.0702H55.1086C55.1154 35.4748 55.2936 35.677 55.6408 35.677C56.0108 35.677 56.1958 35.4998 56.1958 35.1475C56.1958 34.9747 56.125 34.8384 55.9811 34.7361C55.924 34.6952 55.8509 34.6565 55.7572 34.6179L55.506 34.5202C55.4009 34.4792 55.3141 34.4429 55.2525 34.4111C55.1634 34.3656 55.0903 34.3156 55.0332 34.2633C54.8893 34.1338 54.8185 33.9565 54.8185 33.736C54.8185 33.4951 54.8985 33.2974 55.0606 33.1451C55.2205 32.9928 55.4215 32.9155 55.6659 32.9155C55.8943 32.9155 56.0861 32.9928 56.2414 33.1474C56.3968 33.3019 56.4744 33.4928 56.4744 33.7201H56.0953C56.0747 33.411 55.9263 33.2565 55.6499 33.2565C55.3484 33.2565 55.1999 33.4042 55.1999 33.6997C55.1999 33.8474 55.2707 33.9656 55.4146 34.0542C55.4694 34.0883 55.5425 34.1224 55.6385 34.1565L55.7001 34.1792C55.7138 34.1838 55.7344 34.1929 55.7641 34.202L55.892 34.2497C55.9948 34.2906 56.0793 34.3292 56.1478 34.3656C56.2369 34.4133 56.31 34.4679 56.3671 34.527C56.511 34.6724 56.5818 34.8702 56.5818 35.1156C56.5818 35.718 56.2711 36.018 55.6476 36.018H55.643Z" fill="#010101"/>
<path d="M60.1974 34.6065H57.4908C57.5045 34.8974 57.6279 35.1475 57.8585 35.3611C58.0892 35.5725 58.3496 35.677 58.6442 35.677C58.8772 35.677 59.0919 35.6157 59.2861 35.4929C59.487 35.3634 59.6287 35.1929 59.7086 34.9793H60.1129C60.0032 35.2884 59.8137 35.5407 59.5441 35.7316C59.2746 35.9225 58.9777 36.0202 58.6511 36.0202C58.224 36.0202 57.8563 35.868 57.5525 35.5634C57.251 35.2634 57.1025 34.8997 57.1025 34.4724C57.1025 34.0451 57.2533 33.6838 57.5525 33.3769C57.8563 33.0701 58.2217 32.9155 58.6442 32.9155C59.0668 32.9155 59.4436 33.0724 59.7474 33.3883C60.0489 33.6997 60.2019 34.0701 60.2019 34.4997L60.1974 34.6088V34.6065ZM59.8137 34.2656C59.7634 33.9724 59.6332 33.7315 59.4185 33.5428C59.2038 33.3519 58.948 33.2542 58.6511 33.2542C58.3542 33.2542 58.1029 33.3496 57.8837 33.5428C57.669 33.7338 57.5388 33.9747 57.4908 34.2656H59.8114H59.8137Z" fill="#010101"/>
<path d="M65.1879 35.559C64.8819 35.8658 64.5164 36.0181 64.0893 36.0181C63.6622 36.0181 63.3082 35.8658 63.0021 35.5635C62.6938 35.2613 62.5408 34.9021 62.5408 34.4862C62.5408 34.0703 62.6915 33.6884 62.9907 33.3793C63.2922 33.068 63.6599 32.9111 64.0893 32.9111C64.5187 32.9111 64.8773 33.0634 65.1834 33.3702C65.4917 33.6771 65.6447 34.0407 65.6447 34.4635C65.6447 34.8862 65.4917 35.2522 65.1857 35.5567L65.1879 35.559ZM64.9253 33.6112C64.6946 33.3748 64.4182 33.2543 64.0962 33.2543C63.7741 33.2543 63.4841 33.3771 63.2557 33.6248C63.0318 33.8635 62.9222 34.1498 62.9222 34.4817C62.9222 34.8135 63.0364 35.0862 63.2648 35.3204C63.4955 35.5567 63.7719 35.6772 64.0985 35.6772C64.4251 35.6772 64.7151 35.5567 64.9413 35.3135C65.1605 35.0772 65.2702 34.7885 65.2702 34.4499C65.2702 34.1112 65.156 33.8453 64.9276 33.6112H64.9253Z" fill="#010101"/>
<path d="M67.0014 33.3314V35.9475H66.6223V33.3314H66.1609V32.9905H66.6223L66.6268 32.8791C66.6268 32.8359 66.6314 32.7996 66.636 32.7677C66.6428 32.6859 66.6542 32.6109 66.6725 32.545C66.7387 32.2995 66.8758 32.1245 67.0836 32.0154C67.2549 31.9245 67.481 31.8791 67.762 31.8745V32.2245C67.2549 32.2245 67.0014 32.4723 67.0014 32.9655V32.9859H67.762V33.3269H67.0014V33.3314Z" fill="#010101"/>
<path d="M72.2158 35.9473V34.3222C72.2158 34.1631 72.1952 34.0177 72.1518 33.8836C72.1039 33.7267 72.0308 33.6017 71.9326 33.5085C71.7521 33.3404 71.5374 33.254 71.2885 33.254C71.0395 33.254 70.8225 33.3381 70.6421 33.5085C70.5439 33.5995 70.4731 33.7222 70.4251 33.8722C70.384 34.0018 70.3635 34.1427 70.3635 34.2927V35.9473H69.9843V31.9448H70.3635V33.3676H70.3749C70.5713 33.0653 70.8751 32.9131 71.2908 32.9131C71.7065 32.9131 72.0308 33.0449 72.2638 33.3085C72.4876 33.5608 72.5972 33.8995 72.5972 34.32V35.945H72.2181L72.2158 35.9473Z" fill="#010101"/>
<path d="M76.4526 34.6065H73.7461C73.7598 34.8974 73.8831 35.1475 74.1138 35.3611C74.3445 35.5725 74.6049 35.677 74.8995 35.677C75.1325 35.677 75.3472 35.6157 75.5413 35.4929C75.7423 35.3634 75.8839 35.1929 75.9639 34.9793H76.3659C76.2562 35.2884 76.0666 35.5407 75.7971 35.7316C75.5276 35.9225 75.2307 36.0202 74.9041 36.0202C74.477 36.0202 74.1093 35.868 73.8055 35.5634C73.504 35.2634 73.3555 34.8997 73.3555 34.4724C73.3555 34.0451 73.5063 33.6838 73.8055 33.3769C74.1093 33.0701 74.4747 32.9155 74.8995 32.9155C75.3243 32.9155 75.6989 33.0724 76.0027 33.3883C76.3042 33.6997 76.4572 34.0701 76.4572 34.4997L76.4526 34.6088V34.6065ZM76.0689 34.2656C76.0187 33.9724 75.8885 33.7315 75.6738 33.5428C75.4568 33.3519 75.2033 33.2542 74.9064 33.2542C74.6094 33.2542 74.3582 33.3496 74.1389 33.5428C73.9242 33.7338 73.7941 33.9747 73.7461 34.2656H76.0666H76.0689Z" fill="#010101"/>
<path d="M79.865 35.9473V35.4269H79.8535C79.5909 35.8201 79.2072 36.0178 78.6978 36.0178C78.2502 36.0178 77.8733 35.8701 77.565 35.5723C77.2543 35.2746 77.1013 34.9041 77.1013 34.4609C77.1013 34.0177 77.2566 33.6518 77.5718 33.354C77.8802 33.0608 78.257 32.9131 78.7001 32.9131C79.2186 32.9131 79.6046 33.1108 79.8558 33.5063H79.8672V32.9881H80.2487V35.9451H79.8672L79.865 35.9473ZM79.5475 33.6177C79.3168 33.3767 79.0336 33.2563 78.6978 33.2563C78.3461 33.2563 78.056 33.3722 77.8253 33.604C77.5947 33.8359 77.4805 34.1268 77.4805 34.4768C77.4805 34.8268 77.5969 35.1087 77.8276 35.3382C78.0583 35.5655 78.3484 35.6791 78.6978 35.6791C79.0473 35.6791 79.3145 35.561 79.5475 35.3223C79.7759 35.0882 79.8901 34.8041 79.8901 34.4723C79.8901 34.1404 79.7759 33.854 79.5475 33.6177Z" fill="#010101"/>
<path d="M81.1234 35.9473V31.9448H81.5026V35.9473H81.1234Z" fill="#010101"/>
<path d="M83.1265 33.3313V35.9473H82.7473V33.3313H82.1215V32.9903H82.7473V31.9448H83.1265V32.9903H83.8368V33.3313H83.1265Z" fill="#010101"/>
<path d="M86.6439 35.9473V34.3222C86.6439 34.1631 86.6233 34.0177 86.5799 33.8836C86.532 33.7267 86.4589 33.6017 86.3607 33.5085C86.1802 33.3404 85.9655 33.254 85.7166 33.254C85.4676 33.254 85.2506 33.3381 85.0702 33.5085C84.972 33.5995 84.9012 33.7222 84.8532 33.8722C84.8121 34.0018 84.7916 34.1427 84.7916 34.2927V35.9473H84.4124V31.9448H84.7916V33.3676H84.803C84.9994 33.0653 85.3032 32.9131 85.7189 32.9131C86.1346 32.9131 86.4589 33.0449 86.6919 33.3085C86.9157 33.5608 87.0253 33.8995 87.0253 34.32V35.945H86.6462L86.6439 35.9473Z" fill="#010101"/>
<path d="M90.8739 35.077C90.5541 35.7043 90.0608 36.0202 89.3961 36.0202C88.953 36.0202 88.5784 35.8725 88.2678 35.577C87.9549 35.277 87.7973 34.9111 87.7973 34.4747C87.7973 34.0383 87.9549 33.6724 88.2701 33.3678C88.583 33.0678 88.9576 32.9155 89.3938 32.9155C89.7204 32.9155 90.0174 33.0019 90.2823 33.1724C90.5541 33.3474 90.7505 33.586 90.8716 33.886H90.4536C90.2321 33.4678 89.8826 33.2587 89.4052 33.2587C89.0626 33.2587 88.7749 33.3746 88.5373 33.6065C88.2975 33.8383 88.1764 34.1247 88.1764 34.4633C88.1764 34.802 88.2952 35.0952 88.5328 35.3293C88.7703 35.5634 89.0604 35.6793 89.4052 35.6793C89.894 35.6793 90.2435 35.4793 90.4536 35.077H90.8716H90.8739Z" fill="#010101"/>
<path d="M94.277 35.9473V35.4269H94.2656C94.0029 35.8201 93.6192 36.0178 93.1099 36.0178C92.6622 36.0178 92.2854 35.8701 91.977 35.5723C91.6664 35.2746 91.5134 34.9041 91.5134 34.4609C91.5134 34.0177 91.6687 33.6518 91.9839 33.354C92.2922 33.0608 92.6691 32.9131 93.1122 32.9131C93.6306 32.9131 94.0166 33.1108 94.2679 33.5063H94.2793V32.9881H94.6607V35.9451H94.2793L94.277 35.9473ZM93.9595 33.6177C93.7289 33.3767 93.4456 33.2563 93.1099 33.2563C92.7581 33.2563 92.4681 33.3722 92.2374 33.604C92.0067 33.8359 91.8925 34.1268 91.8925 34.4768C91.8925 34.8268 92.009 35.1087 92.2397 35.3382C92.4704 35.5655 92.7604 35.6791 93.1099 35.6791C93.4593 35.6791 93.7266 35.561 93.9595 35.3223C94.1879 35.0882 94.3021 34.8041 94.3021 34.4723C94.3021 34.1404 94.1879 33.854 93.9595 33.6177Z" fill="#010101"/>
<path d="M96.7643 33.3154C96.1979 33.3608 95.9147 33.6631 95.9147 34.2177V35.9473H95.5355V32.9904H95.9147V33.4177H95.9261C96.0037 33.2404 96.1157 33.1108 96.2618 33.0313C96.3829 32.9676 96.5496 32.929 96.7643 32.9131V33.3154Z" fill="#010101"/>
<path d="M100.307 34.6065H97.6003C97.614 34.8974 97.7373 35.1475 97.968 35.3611C98.1987 35.5725 98.4591 35.677 98.7537 35.677C98.9867 35.677 99.2014 35.6157 99.3955 35.4929C99.5965 35.3634 99.7381 35.1929 99.8181 34.9793H100.22C100.11 35.2884 99.9208 35.5407 99.6513 35.7316C99.3818 35.9225 99.0849 36.0202 98.7583 36.0202C98.3312 36.0202 97.9634 35.868 97.6597 35.5634C97.3582 35.2634 97.2097 34.8997 97.2097 34.4724C97.2097 34.0451 97.3605 33.6838 97.6597 33.3769C97.9634 33.0701 98.3289 32.9155 98.7537 32.9155C99.1785 32.9155 99.5531 33.0724 99.8569 33.3883C100.158 33.6997 100.311 34.0701 100.311 34.4997L100.307 34.6088V34.6065ZM99.9231 34.2656C99.8729 33.9724 99.7427 33.7315 99.528 33.5428C99.311 33.3519 99.0575 33.2542 98.7606 33.2542C98.4636 33.2542 98.2124 33.3496 97.9931 33.5428C97.7784 33.7338 97.6483 33.9747 97.6003 34.2656H99.9208H99.9231Z" fill="#010101"/>
<path d="M105.45 35.5725C105.142 35.8702 104.765 36.018 104.318 36.018C103.817 36.018 103.431 35.8202 103.157 35.427H103.146V36.9839H102.767V32.9905H103.146V33.5087H103.157C103.438 33.1133 103.824 32.9155 104.318 32.9155C104.761 32.9155 105.135 33.0633 105.441 33.3565C105.756 33.6542 105.914 34.0224 105.914 34.4633C105.914 34.9043 105.759 35.277 105.45 35.5748V35.5725ZM105.19 33.6042C104.959 33.3724 104.669 33.2565 104.318 33.2565C103.966 33.2565 103.701 33.3769 103.468 33.6178C103.24 33.8565 103.125 34.1406 103.125 34.4724C103.125 34.8043 103.24 35.0884 103.468 35.3225C103.699 35.5589 103.982 35.6793 104.318 35.6793C104.653 35.6793 104.955 35.5657 105.185 35.3384C105.416 35.1088 105.533 34.8224 105.533 34.477C105.533 34.1315 105.418 33.836 105.19 33.6042Z" fill="#010101"/>
<path d="M107.897 33.3154C107.33 33.3608 107.047 33.6631 107.047 34.2177V35.9473H106.668V32.9904H107.047V33.4177H107.058C107.136 33.2404 107.248 33.1108 107.394 33.0313C107.515 32.9676 107.682 32.929 107.897 32.9131V33.3154Z" fill="#010101"/>
<path d="M111.014 35.559C110.708 35.8658 110.343 36.0181 109.916 36.0181C109.489 36.0181 109.134 35.8658 108.828 35.5635C108.52 35.2613 108.367 34.9021 108.367 34.4862C108.367 34.0703 108.518 33.6884 108.817 33.3793C109.119 33.068 109.486 32.9111 109.916 32.9111C110.345 32.9111 110.704 33.0634 111.012 33.3702C111.32 33.6771 111.473 34.0407 111.473 34.4635C111.473 34.8862 111.32 35.2522 111.014 35.5567V35.559ZM110.752 33.6112C110.521 33.3748 110.245 33.2543 109.922 33.2543C109.6 33.2543 109.31 33.3771 109.082 33.6248C108.858 33.8635 108.748 34.1498 108.748 34.4817C108.748 34.8135 108.863 35.0862 109.091 35.3204C109.322 35.5567 109.598 35.6772 109.925 35.6772C110.251 35.6772 110.541 35.5567 110.768 35.3135C110.987 35.0772 111.096 34.7885 111.096 34.4499C111.096 34.1112 110.982 33.8453 110.754 33.6112H110.752Z" fill="#010101"/>
<path d="M114.861 35.9473V35.4268H114.849C114.584 35.82 114.198 36.0178 113.693 36.0178C113.246 36.0178 112.869 35.87 112.561 35.5723C112.25 35.2745 112.097 34.9041 112.097 34.4609C112.097 34.0177 112.254 33.6517 112.567 33.354C112.878 33.0608 113.253 32.9131 113.696 32.9131C114.2 32.9131 114.584 33.1085 114.851 33.4972H114.863V31.9448H115.244V35.9473H114.863H114.861ZM114.543 33.6176C114.312 33.3767 114.029 33.2563 113.693 33.2563C113.342 33.2563 113.052 33.3722 112.821 33.604C112.59 33.8358 112.476 34.1268 112.476 34.4768C112.476 34.8268 112.592 35.1086 112.823 35.3382C113.054 35.5655 113.344 35.6791 113.693 35.6791C114.043 35.6791 114.31 35.5609 114.543 35.3223C114.771 35.0882 114.886 34.8041 114.886 34.4722C114.886 34.1404 114.771 33.854 114.543 33.6176Z" fill="#010101"/>
<path d="M118.373 35.9477V35.4886H118.362C118.28 35.6636 118.147 35.7954 117.967 35.8886C117.802 35.975 117.617 36.0181 117.409 36.0181C116.964 36.0181 116.624 35.8704 116.389 35.5749C116.29 35.4522 116.222 35.3022 116.178 35.1226C116.144 34.9795 116.128 34.8113 116.128 34.6203V32.9884H116.507V34.6135C116.507 34.9454 116.574 35.1976 116.704 35.3727C116.854 35.5727 117.09 35.6727 117.409 35.6727C117.661 35.6727 117.871 35.5931 118.04 35.4317C118.161 35.3181 118.243 35.1817 118.291 35.0249C118.33 34.8999 118.351 34.7408 118.351 34.5476V32.9839H118.73V35.9409H118.371L118.373 35.9477Z" fill="#010101"/>
<path d="M122.583 35.077C122.263 35.7043 121.77 36.0202 121.105 36.0202C120.662 36.0202 120.287 35.8725 119.977 35.577C119.664 35.277 119.506 34.9111 119.506 34.4747C119.506 34.0383 119.664 33.6724 119.979 33.3678C120.292 33.0678 120.666 32.9155 121.103 32.9155C121.429 32.9155 121.726 33.0019 121.991 33.1724C122.263 33.3474 122.459 33.586 122.58 33.886H122.162C121.941 33.4678 121.591 33.2587 121.114 33.2587C120.772 33.2587 120.484 33.3746 120.246 33.6065C120.006 33.8383 119.885 34.1247 119.885 34.4633C119.885 34.802 120.004 35.0952 120.242 35.3293C120.479 35.5634 120.769 35.6793 121.114 35.6793C121.603 35.6793 121.952 35.4793 122.162 35.077H122.58H122.583Z" fill="#010101"/>
<path d="M124.072 33.3313V35.9473H123.693V33.3313H123.067V32.9903H123.693V31.9448H124.072V32.9903H124.782V33.3313H124.072Z" fill="#010101"/>
<path d="M126.066 36.018C125.801 36.018 125.582 35.9316 125.41 35.7589C125.239 35.5861 125.152 35.3679 125.152 35.1043V35.0702H125.531C125.538 35.4748 125.716 35.677 126.064 35.677C126.434 35.677 126.619 35.4998 126.619 35.1475C126.619 34.9747 126.548 34.8384 126.404 34.7361C126.347 34.6952 126.274 34.6565 126.18 34.6179L125.929 34.5202C125.824 34.4792 125.737 34.4429 125.673 34.4111C125.584 34.3656 125.511 34.3156 125.454 34.2633C125.31 34.1338 125.239 33.9565 125.239 33.736C125.239 33.4951 125.319 33.2974 125.481 33.1451C125.641 32.9928 125.842 32.9155 126.086 32.9155C126.315 32.9155 126.507 32.9928 126.662 33.1474C126.817 33.3019 126.895 33.4928 126.895 33.7201H126.516C126.498 33.411 126.347 33.2565 126.07 33.2565C125.769 33.2565 125.621 33.4042 125.621 33.6997C125.621 33.8474 125.691 33.9656 125.835 34.0542C125.89 34.0883 125.965 34.1224 126.059 34.1565L126.121 34.1792C126.134 34.1838 126.157 34.1929 126.185 34.202L126.313 34.2497C126.415 34.2906 126.5 34.3292 126.566 34.3656C126.655 34.4133 126.728 34.4679 126.785 34.527C126.929 34.6724 127 34.8702 127 35.1156C127 35.718 126.689 36.018 126.066 36.018Z" fill="#010101"/>
</g>
<defs>
<linearGradient id="paint0_linear_73_329" x1="11.8403" y1="28.0402" x2="5.83187" y2="-13.2773" gradientUnits="userSpaceOnUse">
<stop stop-color="#35B558"/>
<stop offset="1" stop-color="#006669"/>
</linearGradient>
<linearGradient id="paint1_linear_73_329" x1="30.8318" y1="-1.66373" x2="24.8175" y2="18.3718" gradientUnits="userSpaceOnUse">
<stop stop-color="#35B558"/>
<stop offset="0.44" stop-color="#008D66"/>
<stop offset="1" stop-color="#006669"/>
</linearGradient>
<linearGradient id="paint2_linear_73_329" x1="26.2456" y1="19.2215" x2="26.2456" y2="48.6186" gradientUnits="userSpaceOnUse">
<stop stop-color="#35B558"/>
<stop offset="1" stop-color="#006669"/>
</linearGradient>
<linearGradient id="paint3_linear_73_329" x1="4.70049" y1="40.0592" x2="16.1168" y2="22.3731" gradientUnits="userSpaceOnUse">
<stop stop-color="#35B558"/>
<stop offset="0.44" stop-color="#008D66"/>
<stop offset="1" stop-color="#006669"/>
</linearGradient>
<clipPath id="clip0_73_329">
<rect width="127" height="42" fill="white"/>
</clipPath>
</defs>
</svg>
