<svg width="127" height="42" viewBox="0 0 127 42" fill="none" xmlns="http://www.w3.org/2000/svg">
<g clip-path="url(#clip0_336_2525)">
<path d="M19.663 18.6328H9.27079C4.15004 18.6328 0 14.5031 0 9.40733V9.2255C0 4.12977 4.15004 0 9.27079 0H14.9808V13.9758C14.9808 16.5486 17.0775 18.6328 19.6607 18.6328H19.663Z" fill="url(#paint0_linear_336_2525)"/>
<path d="M36.0759 9.31641C36.0759 13.1916 33.6982 16.5145 30.3156 17.9192C29.2079 18.3805 27.9905 18.6328 26.7137 18.6328H25.7202C22.8972 18.6328 20.2546 17.8555 18.0002 16.5032C18.0528 16.5054 18.1076 16.5077 18.1601 16.5077C19.8571 16.5077 21.2435 15.1826 21.3326 13.5144C21.3349 13.4575 21.3372 13.4007 21.3372 13.3462V0H26.7137C31.8847 0 36.0759 4.17068 36.0759 9.31641Z" fill="url(#paint1_linear_336_2525)"/>
<path d="M16.4128 23.3672H26.8051C31.9258 23.3672 36.0759 27.497 36.0759 32.5927V32.7745C36.0759 37.8702 31.9258 42 26.8051 42H21.0951V28.0243C21.0951 25.4514 18.9983 23.3672 16.4151 23.3672H16.4128Z" fill="url(#paint2_linear_336_2525)"/>
<path d="M0 32.6859C0 28.8106 2.37765 25.4877 5.76027 24.0831C6.86801 23.6217 8.08539 23.3694 9.36215 23.3694H10.3557C13.1787 23.3694 15.8213 24.1468 18.0756 25.4991C18.0231 25.4968 17.9683 25.4946 17.9158 25.4946C16.2187 25.4946 14.8324 26.8196 14.7433 28.4879C14.741 28.5447 14.7387 28.6015 14.7387 28.6561V42.0023H9.36215C4.19116 42.0023 0 37.8316 0 32.6859Z" fill="url(#paint3_linear_336_2525)"/>
<path d="M52.4613 10.821L59.4321 26.6719H57.2851L55.1268 21.5966H48.631L46.4727 26.6719H44.3257L51.2736 10.821C51.4998 10.3051 52.2329 10.3051 52.4613 10.821ZM51.8675 13.8212L49.2203 19.9124H54.5124L51.8652 13.8212H51.8675Z" fill="#231F20"/>
<path d="M60.5649 26.6719V11.1301C60.5649 10.5415 61.2913 10.2619 61.691 10.696L72.7296 23.1512V10.4369H74.6139V26.1264C74.6139 26.7128 73.8921 26.9946 73.4924 26.5651L62.4515 14.2417V26.6742H60.5672L60.5649 26.6719Z" fill="#231F20"/>
<path d="M78.0081 26.6719V10.4369H79.9837V16.4895H88.8206V10.4369H90.8305V26.6719H88.8206V18.3646H79.9837V26.6719H78.0081Z" fill="#231F20"/>
<path d="M111.238 18.4328C111.238 19.617 111.019 20.7307 110.578 21.7784C110.139 22.8262 109.498 23.7558 108.657 24.5695C107.816 25.3832 106.848 26.0105 105.754 26.4514C104.66 26.8924 103.525 27.1128 102.351 27.1128C101.177 27.1128 100.046 26.8924 98.9591 26.4514C97.8719 26.0105 96.9081 25.3832 96.0675 24.5695C95.2179 23.749 94.5738 22.8149 94.1307 21.7671C93.6876 20.7193 93.4661 19.6079 93.4661 18.4328C93.4661 17.2577 93.6876 16.1327 94.1307 15.0826C94.5738 14.0326 95.2202 13.0962 96.0675 12.2734C96.9012 11.4665 97.8628 10.846 98.9545 10.4096C100.046 9.97326 101.179 9.75507 102.353 9.75507C103.527 9.75507 104.674 9.97326 105.768 10.4096C106.862 10.846 107.826 11.4688 108.659 12.2734C109.5 13.0871 110.142 14.0189 110.58 15.0713C111.019 16.1236 111.24 17.2441 111.24 18.4328H111.238ZM102.351 25.2582C103.26 25.2582 104.126 25.0877 104.948 24.7445C105.77 24.4013 106.51 23.9036 107.17 23.2467C107.821 22.5989 108.319 21.8648 108.659 21.042C109 20.2215 109.171 19.351 109.171 18.4305C109.171 17.51 109 16.6213 108.655 15.7849C108.31 14.9485 107.816 14.2099 107.172 13.5689C106.521 12.9211 105.784 12.4279 104.961 12.0893C104.139 11.7506 103.269 11.5802 102.353 11.5802C101.437 11.5802 100.553 11.7506 99.7265 12.0893C98.8997 12.4279 98.1688 12.9211 97.5339 13.5689C96.8829 14.2235 96.385 14.9667 96.0447 15.7963C95.7044 16.6259 95.5331 17.5032 95.5331 18.4305C95.5331 19.3579 95.7021 20.217 96.0379 21.0307C96.3759 21.8444 96.8738 22.583 97.5316 23.2467C98.1985 23.9104 98.9385 24.4104 99.7539 24.7491C100.569 25.0877 101.435 25.2582 102.351 25.2582Z" fill="#231F20"/>
<path d="M119.326 10.821L126.296 26.6719H124.149L121.991 21.5966H115.495L113.337 26.6719H111.19L118.138 10.821C118.364 10.3051 119.097 10.3051 119.326 10.821ZM118.732 13.8212L116.085 19.9124H121.377L118.729 13.8212H118.732Z" fill="#231F20"/>
<path d="M46.3563 35.9474V34.07H44.2778V35.9474H43.8735V31.9449H44.2778V33.7086H46.3563V31.9449H46.756V35.9474H46.3563Z" fill="#010101"/>
<path d="M50.2368 35.5587C49.9307 35.8656 49.5653 36.0178 49.1382 36.0178C48.711 36.0178 48.357 35.8656 48.051 35.5633C47.7426 35.261 47.5896 34.9019 47.5896 34.4859C47.5896 34.07 47.7403 33.6882 48.0395 33.3791C48.341 33.0677 48.7088 32.9109 49.1382 32.9109C49.5676 32.9109 49.9261 33.0631 50.2345 33.37C50.5428 33.6768 50.6959 34.0405 50.6959 34.4632C50.6959 34.886 50.5428 35.2519 50.2368 35.5565V35.5587ZM49.9741 33.6109C49.7434 33.3745 49.4671 33.2541 49.145 33.2541C48.823 33.2541 48.5329 33.3768 48.3045 33.6245C48.0807 33.8632 47.971 34.1496 47.971 34.4814C47.971 34.8132 48.0852 35.086 48.3136 35.3201C48.5443 35.5565 48.8207 35.6769 49.1473 35.6769C49.4739 35.6769 49.764 35.5565 49.9901 35.3133C50.2094 35.0769 50.319 34.7882 50.319 34.4496C50.319 34.1109 50.2048 33.845 49.9764 33.6109H49.9741Z" fill="#010101"/>
<path d="M53.6856 35.9474V35.4883H53.6742C53.592 35.6633 53.4595 35.7951 53.2791 35.8883C53.1146 35.9747 52.9296 36.0179 52.7218 36.0179C52.2764 36.0179 51.9361 35.8701 51.7008 35.5747C51.6026 35.4519 51.5341 35.3019 51.4907 35.1224C51.4564 34.9792 51.4404 34.811 51.4404 34.6201V32.9882H51.8196V34.6132C51.8196 34.9451 51.8858 35.1974 52.016 35.3724C52.1667 35.5724 52.402 35.6724 52.7218 35.6724C52.973 35.6724 53.1831 35.5928 53.3521 35.4315C53.4732 35.3178 53.5554 35.1815 53.6034 35.0246C53.6422 34.8996 53.6628 34.7405 53.6628 34.5473V32.9836H54.0419V35.9406H53.6833L53.6856 35.9474Z" fill="#010101"/>
<path d="M55.6431 36.0178C55.3782 36.0178 55.1589 35.9315 54.9876 35.7587C54.8163 35.586 54.7295 35.3678 54.7295 35.1042V35.0701H55.1086C55.1155 35.4746 55.2936 35.6769 55.6408 35.6769C56.0108 35.6769 56.1958 35.4996 56.1958 35.1473C56.1958 34.9746 56.125 34.8382 55.9811 34.736C55.924 34.695 55.8509 34.6564 55.7573 34.6178L55.5061 34.52C55.401 34.4791 55.3142 34.4428 55.2525 34.4109C55.1635 34.3655 55.0904 34.3155 55.0333 34.2632C54.8894 34.1337 54.8186 33.9564 54.8186 33.7359C54.8186 33.495 54.8985 33.2972 55.0607 33.145C55.2206 32.9927 55.4215 32.9154 55.6659 32.9154C55.8943 32.9154 56.0862 32.9927 56.2415 33.1472C56.3968 33.3018 56.4745 33.4927 56.4745 33.72H56.0953C56.0748 33.4109 55.9263 33.2563 55.6499 33.2563C55.3485 33.2563 55.2 33.4041 55.2 33.6995C55.2 33.8473 55.2708 33.9655 55.4147 34.0541C55.4695 34.0882 55.5426 34.1223 55.6385 34.1564L55.7002 34.1791C55.7139 34.1837 55.7345 34.1927 55.7641 34.2018L55.8921 34.2496C55.9948 34.2905 56.0793 34.3291 56.1479 34.3655C56.2369 34.4132 56.31 34.4678 56.3671 34.5269C56.511 34.6723 56.5818 34.8701 56.5818 35.1155C56.5818 35.7178 56.2712 36.0178 55.6477 36.0178H55.6431Z" fill="#010101"/>
<path d="M60.1974 34.6064H57.4908C57.5045 34.8973 57.6279 35.1473 57.8585 35.361C58.0892 35.5724 58.3496 35.6769 58.6442 35.6769C58.8772 35.6769 59.0919 35.6156 59.2861 35.4928C59.487 35.3633 59.6287 35.1928 59.7086 34.9792H60.1129C60.0032 35.2883 59.8137 35.5405 59.5441 35.7315C59.2746 35.9224 58.9777 36.0201 58.6511 36.0201C58.224 36.0201 57.8563 35.8678 57.5525 35.5633C57.251 35.2633 57.1025 34.8996 57.1025 34.4723C57.1025 34.045 57.2533 33.6836 57.5525 33.3768C57.8563 33.07 58.2217 32.9154 58.6442 32.9154C59.0668 32.9154 59.4436 33.0722 59.7474 33.3882C60.0489 33.6995 60.2019 34.07 60.2019 34.4996L60.1974 34.6087V34.6064ZM59.8137 34.2655C59.7634 33.9723 59.6332 33.7314 59.4185 33.5427C59.2038 33.3518 58.948 33.2541 58.6511 33.2541C58.3542 33.2541 58.1029 33.3495 57.8837 33.5427C57.669 33.7336 57.5388 33.9746 57.4908 34.2655H59.8114H59.8137Z" fill="#010101"/>
<path d="M65.1879 35.5587C64.8819 35.8656 64.5164 36.0178 64.0893 36.0178C63.6622 36.0178 63.3082 35.8656 63.0021 35.5633C62.6938 35.261 62.5408 34.9019 62.5408 34.4859C62.5408 34.07 62.6915 33.6882 62.9907 33.3791C63.2922 33.0677 63.6599 32.9109 64.0893 32.9109C64.5187 32.9109 64.8773 33.0631 65.1834 33.37C65.4917 33.6768 65.6447 34.0405 65.6447 34.4632C65.6447 34.886 65.4917 35.2519 65.1857 35.5565L65.1879 35.5587ZM64.9253 33.6109C64.6946 33.3745 64.4182 33.2541 64.0962 33.2541C63.7741 33.2541 63.4841 33.3768 63.2557 33.6245C63.0318 33.8632 62.9222 34.1496 62.9222 34.4814C62.9222 34.8132 63.0364 35.086 63.2648 35.3201C63.4955 35.5565 63.7719 35.6769 64.0985 35.6769C64.4251 35.6769 64.7151 35.5565 64.9413 35.3133C65.1605 35.0769 65.2702 34.7882 65.2702 34.4496C65.2702 34.1109 65.156 33.845 64.9276 33.6109H64.9253Z" fill="#010101"/>
<path d="M67.0014 33.3313V35.9474H66.6223V33.3313H66.1609V32.9904H66.6223L66.6268 32.8791C66.6268 32.8359 66.6314 32.7995 66.636 32.7677C66.6428 32.6859 66.6542 32.6109 66.6725 32.5449C66.7387 32.2995 66.8758 32.1245 67.0836 32.0154C67.2549 31.9245 67.481 31.879 67.762 31.8745V32.2245C67.2549 32.2245 67.0014 32.4722 67.0014 32.9654V32.9859H67.762V33.3268H67.0014V33.3313Z" fill="#010101"/>
<path d="M72.2158 35.9474V34.3223C72.2158 34.1632 72.1953 34.0178 72.1519 33.8837C72.1039 33.7268 72.0308 33.6018 71.9326 33.5086C71.7522 33.3404 71.5375 33.2541 71.2885 33.2541C71.0396 33.2541 70.8226 33.3382 70.6422 33.5086C70.544 33.5995 70.4732 33.7223 70.4252 33.8723C70.3841 34.0018 70.3635 34.1428 70.3635 34.2928V35.9474H69.9844V31.9449H70.3635V33.3677H70.3749C70.5714 33.0654 70.8751 32.9131 71.2908 32.9131C71.7065 32.9131 72.0308 33.045 72.2638 33.3086C72.4877 33.5609 72.5973 33.8996 72.5973 34.32V35.9451H72.2181L72.2158 35.9474Z" fill="#010101"/>
<path d="M76.4526 34.6064H73.746C73.7597 34.8973 73.8831 35.1473 74.1138 35.361C74.3444 35.5724 74.6048 35.6769 74.8995 35.6769C75.1324 35.6769 75.3471 35.6156 75.5413 35.4928C75.7423 35.3633 75.8839 35.1928 75.9638 34.9792H76.3658C76.2562 35.2883 76.0666 35.5405 75.7971 35.7315C75.5276 35.9224 75.2306 36.0201 74.904 36.0201C74.4769 36.0201 74.1092 35.8678 73.8054 35.5633C73.5039 35.2633 73.3555 34.8996 73.3555 34.4723C73.3555 34.045 73.5062 33.6836 73.8054 33.3768C74.1092 33.07 74.4746 32.9154 74.8995 32.9154C75.3243 32.9154 75.6989 33.0722 76.0026 33.3882C76.3041 33.6995 76.4571 34.07 76.4571 34.4996L76.4526 34.6087V34.6064ZM76.0689 34.2655C76.0186 33.9723 75.8884 33.7314 75.6737 33.5427C75.4568 33.3518 75.2032 33.2541 74.9063 33.2541C74.6094 33.2541 74.3581 33.3495 74.1389 33.5427C73.9242 33.7336 73.794 33.9746 73.746 34.2655H76.0666H76.0689Z" fill="#010101"/>
<path d="M79.865 35.9474V35.4269H79.8535C79.5909 35.8201 79.2072 36.0179 78.6978 36.0179C78.2502 36.0179 77.8733 35.8701 77.565 35.5724C77.2543 35.2746 77.1013 34.9042 77.1013 34.461C77.1013 34.0178 77.2566 33.6518 77.5718 33.3541C77.8802 33.0609 78.257 32.9131 78.7001 32.9131C79.2186 32.9131 79.6046 33.1109 79.8558 33.5064H79.8672V32.9882H80.2487V35.9451H79.8672L79.865 35.9474ZM79.5475 33.6177C79.3168 33.3768 79.0336 33.2563 78.6978 33.2563C78.3461 33.2563 78.056 33.3723 77.8253 33.6041C77.5947 33.8359 77.4805 34.1269 77.4805 34.4769C77.4805 34.8269 77.5969 35.1087 77.8276 35.3383C78.0583 35.5656 78.3484 35.6792 78.6978 35.6792C79.0473 35.6792 79.3145 35.561 79.5475 35.3224C79.7759 35.0883 79.8901 34.8042 79.8901 34.4723C79.8901 34.1405 79.7759 33.8541 79.5475 33.6177Z" fill="#010101"/>
<path d="M81.1235 35.9474V31.9449H81.5027V35.9474H81.1235Z" fill="#010101"/>
<path d="M83.1266 33.3314V35.9474H82.7474V33.3314H82.1216V32.9904H82.7474V31.9449H83.1266V32.9904H83.8369V33.3314H83.1266Z" fill="#010101"/>
<path d="M86.6438 35.9474V34.3223C86.6438 34.1632 86.6233 34.0178 86.5799 33.8837C86.5319 33.7268 86.4588 33.6018 86.3606 33.5086C86.1802 33.3404 85.9655 33.2541 85.7165 33.2541C85.4676 33.2541 85.2506 33.3382 85.0701 33.5086C84.9719 33.5995 84.9011 33.7223 84.8532 33.8723C84.8121 34.0018 84.7915 34.1428 84.7915 34.2928V35.9474H84.4124V31.9449H84.7915V33.3677H84.8029C84.9993 33.0654 85.3031 32.9131 85.7188 32.9131C86.1345 32.9131 86.4588 33.045 86.6918 33.3086C86.9156 33.5609 87.0253 33.8996 87.0253 34.32V35.9451H86.6461L86.6438 35.9474Z" fill="#010101"/>
<path d="M90.8739 35.0769C90.5542 35.7042 90.0608 36.0201 89.3962 36.0201C88.9531 36.0201 88.5785 35.8724 88.2679 35.5769C87.955 35.2769 87.7974 34.911 87.7974 34.4746C87.7974 34.0382 87.955 33.6723 88.2702 33.3677C88.5831 33.0677 88.9576 32.9154 89.3939 32.9154C89.7205 32.9154 90.0174 33.0018 90.2824 33.1722C90.5542 33.3472 90.7506 33.5859 90.8716 33.8859H90.4537C90.2321 33.4677 89.8827 33.2586 89.4053 33.2586C89.0627 33.2586 88.7749 33.3745 88.5374 33.6064C88.2976 33.8382 88.1765 34.1246 88.1765 34.4632C88.1765 34.8019 88.2953 35.0951 88.5328 35.3292C88.7704 35.5633 89.0604 35.6792 89.4053 35.6792C89.8941 35.6792 90.2435 35.4792 90.4537 35.0769H90.8716H90.8739Z" fill="#010101"/>
<path d="M94.2771 35.9474V35.4269H94.2657C94.003 35.8201 93.6193 36.0179 93.1099 36.0179C92.6623 36.0179 92.2854 35.8701 91.9771 35.5724C91.6665 35.2746 91.5134 34.9042 91.5134 34.461C91.5134 34.0178 91.6687 33.6518 91.9839 33.3541C92.2923 33.0609 92.6691 32.9131 93.1122 32.9131C93.6307 32.9131 94.0167 33.1109 94.2679 33.5064H94.2794V32.9882H94.6608V35.9451H94.2794L94.2771 35.9474ZM93.9596 33.6177C93.7289 33.3768 93.4457 33.2563 93.1099 33.2563C92.7582 33.2563 92.4681 33.3723 92.2375 33.6041C92.0068 33.8359 91.8926 34.1269 91.8926 34.4769C91.8926 34.8269 92.0091 35.1087 92.2397 35.3383C92.4704 35.5656 92.7605 35.6792 93.1099 35.6792C93.4594 35.6792 93.7266 35.561 93.9596 35.3224C94.188 35.0883 94.3022 34.8042 94.3022 34.4723C94.3022 34.1405 94.188 33.8541 93.9596 33.6177Z" fill="#010101"/>
<path d="M96.7644 33.3154C96.198 33.3609 95.9148 33.6632 95.9148 34.2178V35.9474H95.5356V32.9904H95.9148V33.4177H95.9262C96.0039 33.2404 96.1158 33.1109 96.262 33.0313C96.383 32.9677 96.5497 32.9291 96.7644 32.9131V33.3154Z" fill="#010101"/>
<path d="M100.307 34.6064H97.6003C97.614 34.8973 97.7373 35.1473 97.968 35.361C98.1987 35.5724 98.4591 35.6769 98.7537 35.6769C98.9867 35.6769 99.2014 35.6156 99.3955 35.4928C99.5965 35.3633 99.7381 35.1928 99.8181 34.9792H100.22C100.11 35.2883 99.9208 35.5405 99.6513 35.7315C99.3818 35.9224 99.0849 36.0201 98.7583 36.0201C98.3312 36.0201 97.9634 35.8678 97.6597 35.5633C97.3582 35.2633 97.2097 34.8996 97.2097 34.4723C97.2097 34.045 97.3605 33.6836 97.6597 33.3768C97.9634 33.07 98.3289 32.9154 98.7537 32.9154C99.1785 32.9154 99.5531 33.0722 99.8569 33.3882C100.158 33.6995 100.311 34.07 100.311 34.4996L100.307 34.6087V34.6064ZM99.9231 34.2655C99.8729 33.9723 99.7427 33.7314 99.528 33.5427C99.311 33.3518 99.0575 33.2541 98.7606 33.2541C98.4636 33.2541 98.2124 33.3495 97.9931 33.5427C97.7784 33.7336 97.6483 33.9746 97.6003 34.2655H99.9208H99.9231Z" fill="#010101"/>
<path d="M105.45 35.5724C105.142 35.8701 104.765 36.0178 104.317 36.0178C103.817 36.0178 103.431 35.8201 103.157 35.4269H103.146V36.9838H102.767V32.9904H103.146V33.5086H103.157C103.438 33.1131 103.824 32.9154 104.317 32.9154C104.761 32.9154 105.135 33.0631 105.441 33.3563C105.756 33.6541 105.914 34.0223 105.914 34.4632C105.914 34.9041 105.759 35.2769 105.45 35.5746V35.5724ZM105.19 33.6041C104.959 33.3722 104.669 33.2563 104.317 33.2563C103.966 33.2563 103.701 33.3768 103.468 33.6177C103.239 33.8564 103.125 34.1405 103.125 34.4723C103.125 34.8041 103.239 35.0882 103.468 35.3224C103.698 35.5587 103.982 35.6792 104.317 35.6792C104.653 35.6792 104.955 35.5655 105.185 35.3383C105.416 35.1087 105.533 34.8223 105.533 34.4769C105.533 34.1314 105.418 33.8359 105.19 33.6041Z" fill="#010101"/>
<path d="M107.897 33.3154C107.33 33.3609 107.047 33.6632 107.047 34.2178V35.9474H106.668V32.9904H107.047V33.4177H107.058C107.136 33.2404 107.248 33.1109 107.394 33.0313C107.515 32.9677 107.682 32.9291 107.897 32.9131V33.3154Z" fill="#010101"/>
<path d="M111.014 35.5587C110.708 35.8656 110.343 36.0178 109.916 36.0178C109.489 36.0178 109.135 35.8656 108.829 35.5633C108.52 35.261 108.367 34.9019 108.367 34.4859C108.367 34.07 108.518 33.6882 108.817 33.3791C109.119 33.0677 109.486 32.9109 109.916 32.9109C110.345 32.9109 110.704 33.0631 111.012 33.37C111.32 33.6768 111.473 34.0405 111.473 34.4632C111.473 34.886 111.32 35.2519 111.014 35.5565V35.5587ZM110.752 33.6109C110.521 33.3745 110.245 33.2541 109.923 33.2541C109.601 33.2541 109.31 33.3768 109.082 33.6245C108.858 33.8632 108.749 34.1496 108.749 34.4814C108.749 34.8132 108.863 35.086 109.091 35.3201C109.322 35.5565 109.598 35.6769 109.925 35.6769C110.251 35.6769 110.542 35.5565 110.768 35.3133C110.987 35.0769 111.097 34.7882 111.097 34.4496C111.097 34.1109 110.982 33.845 110.754 33.6109H110.752Z" fill="#010101"/>
<path d="M114.861 35.9474V35.4269H114.849C114.584 35.8201 114.198 36.0179 113.693 36.0179C113.246 36.0179 112.869 35.8701 112.561 35.5724C112.25 35.2746 112.097 34.9042 112.097 34.461C112.097 34.0178 112.255 33.6518 112.567 33.3541C112.878 33.0609 113.253 32.9131 113.696 32.9131C114.2 32.9131 114.584 33.1086 114.851 33.4973H114.863V31.9449H115.244V35.9474H114.863H114.861ZM114.543 33.6177C114.312 33.3768 114.029 33.2564 113.693 33.2564C113.342 33.2564 113.052 33.3723 112.821 33.6041C112.59 33.8359 112.476 34.1269 112.476 34.4769C112.476 34.8269 112.593 35.1087 112.823 35.3383C113.054 35.5656 113.344 35.6792 113.693 35.6792C114.043 35.6792 114.31 35.561 114.543 35.3224C114.771 35.0883 114.886 34.8042 114.886 34.4723C114.886 34.1405 114.771 33.8541 114.543 33.6177Z" fill="#010101"/>
<path d="M118.373 35.9474V35.4883H118.362C118.28 35.6633 118.147 35.7951 117.967 35.8883C117.802 35.9747 117.617 36.0179 117.409 36.0179C116.964 36.0179 116.624 35.8701 116.389 35.5747C116.29 35.4519 116.222 35.3019 116.178 35.1224C116.144 34.9792 116.128 34.811 116.128 34.6201V32.9882H116.507V34.6132C116.507 34.9451 116.574 35.1974 116.704 35.3724C116.854 35.5724 117.09 35.6724 117.409 35.6724C117.661 35.6724 117.871 35.5928 118.04 35.4315C118.161 35.3178 118.243 35.1815 118.291 35.0246C118.33 34.8996 118.351 34.7405 118.351 34.5473V32.9836H118.73V35.9406H118.371L118.373 35.9474Z" fill="#010101"/>
<path d="M122.583 35.0769C122.263 35.7042 121.77 36.0201 121.105 36.0201C120.662 36.0201 120.287 35.8724 119.977 35.5769C119.664 35.2769 119.506 34.911 119.506 34.4746C119.506 34.0382 119.664 33.6723 119.979 33.3677C120.292 33.0677 120.666 32.9154 121.103 32.9154C121.429 32.9154 121.726 33.0018 121.991 33.1722C122.263 33.3472 122.459 33.5859 122.58 33.8859H122.162C121.941 33.4677 121.591 33.2586 121.114 33.2586C120.771 33.2586 120.484 33.3745 120.246 33.6064C120.006 33.8382 119.885 34.1246 119.885 34.4632C119.885 34.8019 120.004 35.0951 120.242 35.3292C120.479 35.5633 120.769 35.6792 121.114 35.6792C121.603 35.6792 121.952 35.4792 122.162 35.0769H122.58H122.583Z" fill="#010101"/>
<path d="M124.072 33.3314V35.9474H123.693V33.3314H123.067V32.9904H123.693V31.9449H124.072V32.9904H124.782V33.3314H124.072Z" fill="#010101"/>
<path d="M126.066 36.0178C125.801 36.0178 125.582 35.9315 125.41 35.7587C125.239 35.586 125.152 35.3678 125.152 35.1042V35.0701H125.531C125.538 35.4746 125.716 35.6769 126.064 35.6769C126.434 35.6769 126.619 35.4996 126.619 35.1473C126.619 34.9746 126.548 34.8382 126.404 34.736C126.347 34.695 126.274 34.6564 126.18 34.6178L125.929 34.52C125.824 34.4791 125.737 34.4428 125.673 34.4109C125.584 34.3655 125.511 34.3155 125.454 34.2632C125.31 34.1337 125.239 33.9564 125.239 33.7359C125.239 33.495 125.319 33.2972 125.481 33.145C125.641 32.9927 125.842 32.9154 126.086 32.9154C126.315 32.9154 126.507 32.9927 126.662 33.1472C126.817 33.3018 126.895 33.4927 126.895 33.72H126.516C126.498 33.4109 126.347 33.2563 126.071 33.2563C125.769 33.2563 125.621 33.4041 125.621 33.6995C125.621 33.8473 125.691 33.9655 125.835 34.0541C125.89 34.0882 125.965 34.1223 126.059 34.1564L126.121 34.1791C126.134 34.1837 126.157 34.1927 126.185 34.2018L126.313 34.2496C126.415 34.2905 126.5 34.3291 126.566 34.3655C126.655 34.4132 126.728 34.4678 126.785 34.5269C126.929 34.6723 127 34.8701 127 35.1155C127 35.7178 126.689 36.0178 126.066 36.0178Z" fill="#010101"/>
</g>
<defs>
<linearGradient id="paint0_linear_336_2525" x1="11.8403" y1="28.0402" x2="5.83187" y2="-13.2773" gradientUnits="userSpaceOnUse">
<stop stop-color="#35B558"/>
<stop offset="1" stop-color="#006669"/>
</linearGradient>
<linearGradient id="paint1_linear_336_2525" x1="30.8318" y1="-1.66373" x2="24.8175" y2="18.3718" gradientUnits="userSpaceOnUse">
<stop stop-color="#35B558"/>
<stop offset="0.44" stop-color="#008D66"/>
<stop offset="1" stop-color="#006669"/>
</linearGradient>
<linearGradient id="paint2_linear_336_2525" x1="26.2455" y1="19.2215" x2="26.2455" y2="48.6186" gradientUnits="userSpaceOnUse">
<stop stop-color="#35B558"/>
<stop offset="1" stop-color="#006669"/>
</linearGradient>
<linearGradient id="paint3_linear_336_2525" x1="4.70049" y1="40.059" x2="16.1168" y2="22.3729" gradientUnits="userSpaceOnUse">
<stop stop-color="#35B558"/>
<stop offset="0.44" stop-color="#008D66"/>
<stop offset="1" stop-color="#006669"/>
</linearGradient>
<clipPath id="clip0_336_2525">
<rect width="127" height="42" fill="white"/>
</clipPath>
</defs>
</svg>
