<svg width="17" height="18" viewBox="0 0 17 18" fill="none" xmlns="http://www.w3.org/2000/svg">
<circle cx="8.5" cy="9" r="8.5" fill="#018267"/>
<path d="M9.63344 6.89513C9.57075 7.83562 9.11026 8.59077 8.6124 9.18361C8.0615 9.84091 7.36353 10.3428 7.17668 11.3386C7.03805 12.0799 7.43706 13.2149 8.19289 14C6.96933 13.6696 5.98687 12.6865 6.00013 11.1866C6.01942 9.15138 7.30566 8.24427 6.98501 4C9.18138 4.59629 9.68889 6.0594 9.63223 6.89398L9.63344 6.89513Z" fill="white"/>
<path d="M11.0892 7.63672C9.73543 9.56516 8.69258 9.80994 8.07421 10.7394C7.68071 11.3315 7.7461 12.1783 8.23597 13.0913C7.94687 12.347 8.205 11.5598 8.83369 11.1981C9.68495 10.7086 10.527 10.6358 11.088 9.78678C11.5573 9.07671 11.5963 8.27512 11.088 7.63672H11.0892Z" fill="white"/>
</svg>
