<svg width="47" height="65" viewBox="0 0 47 65" fill="none" xmlns="http://www.w3.org/2000/svg">
<g clip-path="url(#clip0_76_2008)">
<path d="M23.5 0C10.5216 0 0 10.5536 0 23.5714C0 42.5 23.5 65 23.5 65C23.5 65 47 41.4286 47 23.5714C47 10.5536 36.4784 0 23.5 0ZM23.5 42.5C13.0781 42.5 4.62879 34.025 4.62879 23.5714C4.62879 13.1179 13.0781 4.64286 23.5 4.64286C33.9219 4.64286 42.3712 13.1179 42.3712 23.5714C42.3712 34.025 33.9219 42.5 23.5 42.5Z" fill="#B6B6B6"/>
<path d="M27.8229 17.1928C27.6377 20.1107 26.2776 22.4535 24.807 24.2928C23.1798 26.3321 21.1183 27.8893 20.5664 30.9785C20.1569 33.2785 21.3355 36.8 23.568 39.2357C19.9539 38.2107 17.052 35.1607 17.0912 30.5071C17.1482 24.1928 20.9473 21.3785 20.0002 8.21069C26.4877 10.0607 27.9867 14.6 27.8193 17.1893L27.8229 17.1928Z" fill="#B6B6B6"/>
<path d="M31.5117 19.5428C27.3102 25.7893 24.0736 26.5821 22.1544 29.5928C20.9331 31.5107 21.1361 34.2536 22.6565 37.2107C21.7592 34.8 22.5603 32.25 24.5115 31.0786C27.1535 29.4928 29.767 29.2571 31.5081 26.5071C32.9644 24.2071 33.0855 21.6107 31.5081 19.5428H31.5117Z" fill="#B6B6B6"/>
</g>
<defs>
<clipPath id="clip0_76_2008">
<rect width="47" height="65" fill="white"/>
</clipPath>
</defs>
</svg>
