<svg width="22" height="24" viewBox="0 0 22 24" fill="none" xmlns="http://www.w3.org/2000/svg">
<path d="M4.53862 1.84406C4.68517 0.335317 4.86684 3.95023e-05 5.50191 3.95023e-05C6.13087 3.95023e-05 6.30949 0.333779 6.46215 1.80715H15.4203C15.4753 1.31193 15.5363 0.9382 15.7058 0.432209C15.8325 0.0569443 16.1928 0.00157747 16.405 3.95023e-05C17.0339 -0.0045744 17.3545 0.393759 17.4461 1.84406C18.2323 1.84406 19.0262 1.84406 19.82 1.84406C21.31 1.84406 22 2.53154 22 4.01875C22 9.95992 22 15.9011 22 21.8423C22 23.2987 21.3039 23.9985 19.8582 23.9985C13.9395 23.9985 8.02082 23.9985 2.10214 23.9985C0.705295 23.9985 0 23.2803 0 21.8607C0 15.8996 0 9.93993 0 3.97876C0 2.55922 0.705295 1.8456 2.10367 1.84253C2.90362 1.84099 3.70203 1.84253 4.53709 1.84253L4.53862 1.84406ZM1.88231 3.72039V7.34692H20.1192V3.725H17.4385C17.356 4.46322 17.6522 5.4952 16.5103 5.50751C15.3257 5.51981 15.66 4.43862 15.5455 3.7373H6.44383C6.36292 5.13839 6.16751 5.56287 5.53702 5.52596C4.34626 5.45521 4.6409 4.47245 4.56457 3.72192H1.88231V3.72039ZM9.81306 16.6932C9.74894 16.6609 9.70772 16.6501 9.68177 16.6255C8.98716 15.9688 8.29713 15.3059 7.601 14.6523C7.11248 14.194 6.56901 14.1709 6.18888 14.5769C5.81181 14.9799 5.8683 15.5274 6.34918 15.9918C7.21629 16.8285 8.08799 17.6605 8.96426 18.488C9.59017 19.0785 9.96267 19.0755 10.5855 18.488C12.2388 16.9238 13.8906 15.3582 15.5409 13.791C15.6646 13.6726 15.7974 13.5526 15.8859 13.4096C16.1409 12.9959 16.0859 12.5914 15.7439 12.2592C15.4203 11.9439 15.0295 11.9024 14.6448 12.15C14.4708 12.2623 14.3242 12.4191 14.1715 12.5637C12.7151 13.9417 11.2603 15.3228 9.81459 16.6947L9.81306 16.6932Z" fill="black"/>
</svg>
