<svg width="24" height="24" viewBox="0 0 24 24" fill="none" xmlns="http://www.w3.org/2000/svg">
<path d="M23.2744 10.3575C20.1211 7.19401 16.9579 4.04179 13.7984 0.884574C12.6144 -0.297351 11.4016 -0.294853 10.2138 0.89207C7.10928 3.99306 4.00604 7.0953 0.901546 10.1975C0.780267 10.3187 0.653987 10.4362 0.54521 10.5686C-0.00367092 11.2395 -0.153707 11.9917 0.16637 12.8025C0.476444 13.5896 1.06659 14.0569 1.91179 14.1819C2.11059 14.2118 2.31188 14.2268 2.57195 14.2543C2.57195 14.4542 2.57195 14.6079 2.57195 14.7628C2.57195 16.933 2.56194 19.1032 2.5757 21.2722C2.58695 22.9189 3.68096 23.9921 5.3201 23.9983C6.44537 24.0021 17.4593 23.9983 18.522 23.9983C20.4137 23.9983 21.4452 22.9688 21.4477 21.076C21.4502 18.9845 21.4477 16.8918 21.4477 14.8003V14.2693C21.8241 14.2131 22.1416 14.2006 22.4367 14.1144C24.0846 13.6346 24.5372 11.6231 23.2744 10.3575ZM9.2573 17.394C9.2823 14.6479 10.9414 13.4247 10.5276 7.69876C13.3595 8.50337 14.0134 10.4774 13.9409 11.6031C13.8596 12.8725 13.2658 13.8907 12.6244 14.6904C11.9142 15.5762 11.014 16.2534 10.7739 17.5977C10.5951 18.5972 11.1102 20.1302 12.0842 21.1884C10.5076 20.7424 9.24104 19.4168 9.2573 17.394ZM15.5488 15.6524C14.7886 16.8493 13.6483 16.9505 12.4943 17.6402C11.6429 18.1487 11.2928 19.2581 11.6841 20.3064C11.0215 19.0195 10.9314 17.8276 11.4653 16.9942C12.3018 15.6861 13.7159 15.34 15.5488 12.6251C16.2365 13.5234 16.1827 14.6529 15.5488 15.6524Z" fill="black"/>
</svg>
